<?xml version="1.0" standalone="no"?><!DOCTYPE svg PUBLIC "-//W3C//DTD SVG 1.1//EN" "http://www.w3.org/Graphics/SVG/1.1/DTD/svg11.dtd"><svg t="1651039946892" class="icon" viewBox="0 0 1024 1024" version="1.1" xmlns="http://www.w3.org/2000/svg" p-id="6334" xmlns:xlink="http://www.w3.org/1999/xlink" width="200" height="200"><defs><style type="text/css">@font-face { font-family: feedback-iconfont; src: url("//at.alicdn.com/t/font_1031158_u69w8yhxdu.woff2?t=1630033759944") format("woff2"), url("//at.alicdn.com/t/font_1031158_u69w8yhxdu.woff?t=1630033759944") format("woff"), url("//at.alicdn.com/t/font_1031158_u69w8yhxdu.ttf?t=1630033759944") format("truetype"); }
</style></defs><path d="M122.496 109.738667A42.666667 42.666667 0 0 0 64 149.333333v682.666667a42.666667 42.666667 0 0 0 58.496 39.594667l106.666667-42.666667A42.666667 42.666667 0 0 0 256 789.333333v-597.333333a42.666667 42.666667 0 0 0-26.837333-39.594667l-106.666667-42.666666zM149.333333 768.981333V212.352l21.333334 8.533333v539.562667l-21.333334 8.533333zM357.162667 451.072A42.666667 42.666667 0 0 0 298.666667 490.666667v341.333333a42.666667 42.666667 0 0 0 58.496 39.594667l106.666666-42.666667a42.666667 42.666667 0 0 0 26.837334-39.594667v-256a42.666667 42.666667 0 0 0-26.837334-39.594666l-106.666666-42.666667zM384 768.981333v-215.296l21.333333 8.533334v198.229333l-21.333333 8.533333zM706.56 370.005333A42.666667 42.666667 0 0 1 725.333333 405.333333v341.333334a42.666667 42.666667 0 0 1-58.496 39.594666l-106.666666-42.666666a42.666667 42.666667 0 0 1-26.837334-39.594667v-256a42.666667 42.666667 0 0 1 26.837334-39.594667l106.666666-42.666666a42.666667 42.666667 0 0 1 39.765334 4.266666z m-87.893333 106.88v198.229334l21.333333 8.533333v-215.296l-21.333333 8.533333zM826.496 152.405333A42.666667 42.666667 0 0 0 768 192v640a42.666667 42.666667 0 0 0 58.496 39.594667l106.666667-42.666667a42.666667 42.666667 0 0 0 26.837333-39.594667v-554.666666a42.666667 42.666667 0 0 0-26.837333-39.594667l-106.666667-42.666667zM853.333333 768.981333V255.018667l21.333334 8.533333v496.896l-21.333334 8.533333z" p-id="6335"></path><path d="M149.333333 212.352v556.629333l21.333334-8.533333V220.885333l-21.333334-8.533333zM384 553.685333v215.296l21.333333-8.533333v-198.229333l-21.333333-8.533334zM618.666667 675.114667v-198.229334l21.333333-8.533333v215.296l-21.333333-8.533333zM853.333333 255.018667v513.962666l21.333334-8.533333V263.552l-21.333334-8.533333z" p-id="6336"></path></svg>