<?xml version="1.0" standalone="no"?><!DOCTYPE svg PUBLIC "-//W3C//DTD SVG 1.1//EN" "http://www.w3.org/Graphics/SVG/1.1/DTD/svg11.dtd"><svg t="1650976138296" class="icon" viewBox="0 0 1024 1024" version="1.1" xmlns="http://www.w3.org/2000/svg" p-id="1363" xmlns:xlink="http://www.w3.org/1999/xlink" width="200" height="200"><defs><style type="text/css">@font-face { font-family: feedback-iconfont; src: url("//at.alicdn.com/t/font_1031158_u69w8yhxdu.woff2?t=1630033759944") format("woff2"), url("//at.alicdn.com/t/font_1031158_u69w8yhxdu.woff?t=1630033759944") format("woff"), url("//at.alicdn.com/t/font_1031158_u69w8yhxdu.ttf?t=1630033759944") format("truetype"); }
</style></defs><path d="M298.666667 608h142.933333V725.333333H298.666667zM433.066667 298.666667h157.866666v89.6h-157.866666z" fill="#3D7EFF" p-id="1364"></path><path d="M512 0C228.266667 0 0 228.266667 0 512s228.266667 512 512 512 512-228.266667 512-512S795.733333 0 512 0z m256 725.333333c0 23.466667-19.2 42.666667-42.666667 42.666667h-142.933333c-23.466667 0-42.666667-19.2-42.666667-42.666667v-117.333333c0-23.466667 19.2-42.666667 42.666667-42.666667H640v-40.533333c0-10.666667-8.533333-19.2-17.066667-19.2H403.2c-8.533333 0-17.066667 8.533333-17.066667 19.2v40.533333h57.6c23.466667 0 42.666667 19.2 42.666667 42.666667V725.333333c0 23.466667-19.2 42.666667-42.666667 42.666667H298.666667c-23.466667 0-42.666667-19.2-42.666667-42.666667v-117.333333c0-23.466667 19.2-42.666667 42.666667-42.666667h44.8v-40.533333c0-34.133333 27.733333-61.866667 59.733333-61.866667H490.666667v-32h-57.6c-23.466667 0-42.666667-19.2-42.666667-42.666666V298.666667c0-23.466667 19.2-42.666667 42.666667-42.666667h157.866666c23.466667 0 42.666667 19.2 42.666667 42.666667v89.6c0 23.466667-19.2 42.666667-42.666667 42.666666H533.333333v32h87.466667c34.133333 0 59.733333 27.733333 59.733333 61.866667v40.533333H725.333333c23.466667 0 42.666667 19.2 42.666667 42.666667V725.333333z" fill="#3D7EFF" p-id="1365"></path><path d="M582.4 608H725.333333V725.333333h-142.933333z" fill="#3D7EFF" p-id="1366"></path></svg>