<?xml version="1.0" standalone="no"?><!DOCTYPE svg PUBLIC "-//W3C//DTD SVG 1.1//EN" "http://www.w3.org/Graphics/SVG/1.1/DTD/svg11.dtd"><svg t="1653916278341" class="icon" viewBox="0 0 1024 1024" version="1.1" xmlns="http://www.w3.org/2000/svg" p-id="1577" xmlns:xlink="http://www.w3.org/1999/xlink" width="200" height="200"><defs><style type="text/css">@font-face { font-family: feedback-iconfont; src: url("//at.alicdn.com/t/font_1031158_u69w8yhxdu.woff2?t=1630033759944") format("woff2"), url("//at.alicdn.com/t/font_1031158_u69w8yhxdu.woff?t=1630033759944") format("woff"), url("//at.alicdn.com/t/font_1031158_u69w8yhxdu.ttf?t=1630033759944") format("truetype"); }
</style></defs><path d="M943.999774 16.00087H80.000226c-35.200677 0-63.999355 28.800741-63.999356 63.999356v686.39979h992.000322v-686.39979c-0.002062-35.200677-28.800741-63.999355-64.001418-63.999356z" fill="#FFFFFF" p-id="1578"></path><path d="M1007.99913 782.398824H16.00087c-9.600935 0-16.00087-6.399936-16.00087-16.00087v-686.399791C0 35.200677 35.200677 0 80.000226 0h863.999548c44.799549 0 80.000226 35.200677 80.000226 80.000226v686.39979c0 9.598872-6.399936 15.998808-16.00087 15.998808zM31.999678 750.399146H992.000322V80.000226c0-27.200242-20.800306-48.000548-48.000548-48.000548H80.000226c-27.200242 0-48.000548 20.800306-48.000548 48.000548V750.399146z" fill="#193651" p-id="1579"></path><path d="M80.000226 212.800435h863.999548v489.600226H80.000226z" fill="#E1E6E9" p-id="1580"></path><path d="M80.000226 80.000226h863.999548v132.800209H80.000226z" fill="#F16051" p-id="1581"></path><path d="M16.00087 766.400016v76.799227c0 35.200677 28.800741 63.999355 63.999356 63.999355h863.999548c35.200677 0 63.999355-28.800741 63.999356-63.999355v-76.799227H16.00087z" fill="#E1E6E9" p-id="1582"></path><path d="M943.999774 923.199468H80.000226C35.200677 923.199468 0 887.998792 0 843.199243v-76.799227c0-9.600935 6.399936-16.00087 16.00087-16.00087h992.000322c9.600935 0 16.00087 6.399936 16.00087 16.00087v76.799227c-0.002062 44.799549-35.202739 80.000226-80.002288 80.000225zM31.999678 782.398824v60.800419c0 27.200242 20.800306 48.000548 48.000548 48.000548h863.999548c27.200242 0 48.000548-20.800306 48.000548-48.000548v-60.800419H31.999678z" fill="#193651" p-id="1583"></path><path d="M384.000258 907.200661h255.999484v100.800531H384.000258z" fill="#FFFFFF" p-id="1584"></path><path d="M639.999742 1024H384.000258c-9.600935 0-16.00087-6.399936-16.00087-16.00087v-100.800532c0-9.600935 6.399936-16.00087 16.00087-16.00087h255.999484c9.600935 0 16.00087 6.399936 16.00087 16.00087v100.800532c0 9.600935-6.399936 16.00087-16.00087 16.00087zM399.999065 992.000322h223.999807v-68.800854H399.999065v68.800854z" fill="#193651" p-id="1585"></path><path d="M716.798969 1024H307.198969c-9.600935 0-16.00087-6.399936-16.00087-16.00087s6.399936-16.00087 16.00087-16.00087h409.6c9.600935 0 16.00087 6.399936 16.00087 16.00087 0 9.600935-6.399936 16.00087-16.00087 16.00087zM409.6 820.8005h31.999678v31.999677h-31.999678zM496.000161 820.8005H527.999839v31.999677h-31.999678zM582.400322 820.8005h31.999678v31.999677h-31.999678zM163.199388 131.19971h31.999677v31.999678H163.199388zM249.599549 131.19971h31.999678v31.999678h-31.999678z" fill="#193651" p-id="1586"></path><path d="M335.99971 131.19971h31.999678v31.999678h-31.999678z" fill="#193651" p-id="1587"></path><path d="M142.399082 275.199291h327.999274v225.600306H142.399082z" fill="#FFFFFF" p-id="1588"></path><path d="M257.599984 334.39921v107.200468l95.999033-54.400484z" fill="#2EA2DB" p-id="1589"></path><path d="M536.000274 275.199291h52.799984v52.799984h-52.799984zM536.000274 361.599452h52.799984v52.799984h-52.799984zM536.000274 447.999613h52.799984v52.799984h-52.799984z" fill="#FFFFFF" p-id="1590"></path><path d="M652.799613 291.200161h230.399742v20.800306H652.799613zM652.799613 377.600322h230.399742v20.800306H652.799613zM652.799613 464.000483h230.399742v20.800307H652.799613zM428.799807 558.399017h452.799049v20.800306H428.799807zM142.399082 558.399017h206.400499v20.800306H142.399082zM428.799807 620.799936h452.799049v20.800306H428.799807zM142.399082 620.799936h206.400499v20.800306H142.399082z" fill="#193651" p-id="1591"></path></svg>