<?xml version="1.0" standalone="no"?><!DOCTYPE svg PUBLIC "-//W3C//DTD SVG 1.1//EN" "http://www.w3.org/Graphics/SVG/1.1/DTD/svg11.dtd"><svg t="1650978543994" class="icon" viewBox="0 0 1024 1024" version="1.1" xmlns="http://www.w3.org/2000/svg" p-id="2784" xmlns:xlink="http://www.w3.org/1999/xlink" width="200" height="200"><defs><style type="text/css">@font-face { font-family: feedback-iconfont; src: url("//at.alicdn.com/t/font_1031158_u69w8yhxdu.woff2?t=1630033759944") format("woff2"), url("//at.alicdn.com/t/font_1031158_u69w8yhxdu.woff?t=1630033759944") format("woff"), url("//at.alicdn.com/t/font_1031158_u69w8yhxdu.ttf?t=1630033759944") format("truetype"); }
</style></defs><path d="M19.999961 152.005703h984.002078V114.353777c0-23.293955-19.057963-42.353917-42.351917-42.353918H62.351878C39.057924 72.001859 19.999961 91.059822 19.999961 114.353777v37.651926z" fill="#CDD3E0" p-id="2785"></path><path d="M19.999961 152.005703h984.002078v559.990906H19.999961z" fill="#99EBFB" p-id="2786"></path><path d="M1004.002039 711.996609H19.999961v37.651927c0 23.293955 19.057963 42.351917 42.351917 42.351917H961.648122c23.293955 0 42.351917-19.057963 42.351917-42.351917v-37.651927z" fill="#CDD3E0" p-id="2787"></path><path d="M592.000844 792.000453H431.999156l-19.999961 159.999688h200.00161z" fill="#8690AF" p-id="2788"></path><path d="M327.379361 523.718977l-91.719821-91.717821 91.719821-91.717821c15.619969-15.619969 15.619969-40.94392 0-56.561889-15.617969-15.617969-40.94392-15.617969-56.56189 0l-119.999766 119.999765c-15.617969 15.619969-15.617969 40.94392 0 56.56189l119.999766 119.999766c15.617969 15.617969 40.94392 15.617969 56.56189 0 15.619969-15.619969 15.619969-40.94592 0-56.56389zM522.566979 297.313419l-95.197814 239.999532c-8.111984 20.45196 1.891996 43.605915 22.343957 51.717899 20.45196 8.111984 43.605915-1.891996 51.717899-22.343957l95.195814-239.999531c8.111984-20.45196-1.891996-43.605915-22.343957-51.717899-20.44796-8.111984-43.603915 1.891996-51.715899 22.343956zM788.34046 432.001156l-91.719821 91.717821c-15.617969 15.619969-15.617969 40.94392 0 56.56189 15.617969 15.617969 40.94392 15.617969 56.56189 0l119.999766-119.999766c15.619969-15.617969 15.619969-40.94392 0-56.56189l-119.999766-119.999765c-15.619969-15.617969-40.94392-15.617969-56.56189 0-15.617969 15.617969-15.617969 40.94392 0 56.561889l91.719821 91.719821z" fill="#8481E2" p-id="2789"></path><path d="M961.648122 52.001898H282.353449c-11.045978 0-19.999961 8.955983-19.999961 19.999961 0 11.045978 8.953983 19.999961 19.999961 19.999961h679.294673c12.325976 0 22.351956 10.02798 22.351956 22.353957v17.649965H39.999922v-17.649965c0-12.325976 10.02798-22.353956 22.351956-22.353957h40.001922c11.045978 0 19.999961-8.953983 19.999961-19.999961 0-11.043978-8.953983-19.999961-19.999961-19.999961H62.351878C27.969945 52.001898 0 79.971844 0 114.355777v635.292759c0 34.379933 27.969945 62.351878 62.351878 62.351878h346.991323l-14.999971 119.999766h-62.345878c-11.045978 0-19.999961 8.955983-19.999961 19.999961 0 11.045978 8.953983 19.999961 19.999961 19.999961h360.007296c11.045978 0 19.999961-8.953983 19.999961-19.999961 0-11.043978-8.953983-19.999961-19.999961-19.999961h-62.347878l-14.999971-119.999766h346.991323c34.381933 0 62.351878-27.969945 62.351878-62.351878V114.355777c0-34.383933-27.969945-62.353878-62.351878-62.353879z m-372.303273 879.998282h-154.691698l14.999971-119.999766h124.689756l15.001971 119.999766z m372.303273-159.999688H62.351878c-12.325976 0-22.351956-10.02798-22.351956-22.351956v-17.651966h703.998625c11.045978 0 19.999961-8.955983 19.999961-19.999961s-8.953983-19.999961-19.999961-19.999961H39.999922V172.005664h944.000156v519.990984H923.998195c-11.045978 0-19.999961 8.955983-19.999961 19.999961s8.953983 19.999961 19.999961 19.999961h60.001883v17.651966c0 12.323976-10.02598 22.351956-22.351956 22.351956z" p-id="2790"></path><path d="M192.359624 92.00182c11.045978 0 19.999961-8.953983 19.999961-19.999961 0-11.043978-8.953983-19.999961-19.999961-19.999961h-0.014c-11.045978 0-19.991961 8.955983-19.991961 19.999961s8.959983 19.999961 20.005961 19.999961zM581.660864 256.377499c-14.857971-5.889988-31.119939-5.645989-45.793911 0.693999-14.671971 6.337988-25.997949 18.011965-31.889937 32.869936v-0.002L408.779202 529.940965c-5.891988 14.857971-5.647989 31.117939 0.691998 45.789911 6.337988 14.673971 18.011965 25.999949 32.867936 31.891937a59.813883 59.813883 0 0 0 22.073957 4.245992 59.679883 59.679883 0 0 0 23.717954-4.93999c14.671971-6.337988 25.997949-18.011965 31.889937-32.867936L615.218798 334.059348c5.891988-14.855971 5.647989-31.117939-0.691998-45.789911-6.335988-14.671971-18.009965-25.997949-32.865936-31.891938z m-3.621993 62.935877l-95.197814 240.001532a19.713961 19.713961 0 0 1-10.571979 10.895978 19.705962 19.705962 0 0 1-15.181971 0.228 19.713961 19.713961 0 0 1-10.895978-10.571979 19.699962 19.699962 0 0 1-0.23-15.179971l95.197814-239.999531v-0.002c3.085994-7.775985 10.565979-12.523976 18.463964-12.523976 2.429995 0 4.89799 0.449999 7.289986 1.397998a19.707962 19.707962 0 0 1 10.895978 10.571979 19.705962 19.705962 0 0 1 0.23 15.18197zM359.093299 312.001391c0-16.025969-6.241988-31.091939-17.571966-42.423918-11.331978-11.331978-26.397948-17.571966-42.423917-17.571965s-31.091939 6.239988-42.421917 17.571965l-119.999766 119.999766c-11.331978 11.331978-17.571966 26.397948-17.571966 42.423917s6.241988 31.091939 17.571966 42.423917l119.999766 119.999766c11.329978 11.331978 26.397948 17.571966 42.421917 17.571966 16.025969 0 31.091939-6.239988 42.423917-17.571966 11.329978-11.331978 17.571966-26.397948 17.571966-42.423917s-6.241988-31.091939-17.571966-42.423917l-77.577849-77.575849 77.577849-77.575848c11.331978-11.331978 17.571966-26.399948 17.571966-42.423917z m-45.855911 14.137972l-91.717821 91.717821c-7.809985 7.809985-7.809985 20.47396 0 28.285945l91.717821 91.71782c3.777993 3.775993 5.855989 8.795983 5.855989 14.137973s-2.079996 10.36398-5.855989 14.137972a19.859961 19.859961 0 0 1-14.137972 5.857989 19.859961 19.859961 0 0 1-14.137973-5.857989l-119.999765-119.999765A19.853961 19.853961 0 0 1 159.105689 431.999156a19.849961 19.849961 0 0 1 5.855989-14.137972l119.999765-119.999766a19.855961 19.855961 0 0 1 14.137973-5.857988 19.855961 19.855961 0 0 1 14.137972 5.857988 19.853961 19.853961 0 0 1 5.855989 14.137973 19.861961 19.861961 0 0 1-5.855989 14.139972zM887.326267 389.577239l-119.999766-119.999766c-23.391954-23.389954-61.45388-23.389954-84.847834 0-11.331978 11.331978-17.571966 26.397948-17.571966 42.423918s6.241988 31.091939 17.571966 42.423917l77.577849 77.575848-77.577849 77.575849c-11.331978 11.331978-17.571966 26.397948-17.571966 42.423917s6.241988 31.091939 17.571966 42.423917c11.695977 11.695977 27.059947 17.541966 42.423917 17.541966s30.72794-5.847989 42.423917-17.541966l120.001766-119.999766c23.387954-23.393954 23.387954-61.45588-0.002-84.847834z m-28.283945 56.56189l-120.001765 119.999765a19.859961 19.859961 0 0 1-14.137973 5.857989 19.859961 19.859961 0 0 1-14.137972-5.857989c-3.777993-3.775993-5.855989-8.795983-5.855989-14.137972s2.079996-10.36398 5.855989-14.137973l91.719821-91.71782a20.005961 20.005961 0 0 0 0-28.283945l-91.719821-91.717821a19.853961 19.853961 0 0 1-5.855989-14.137972 19.859961 19.859961 0 0 1 5.855989-14.137973 19.859961 19.859961 0 0 1 14.137972-5.857988 19.859961 19.859961 0 0 1 14.137973 5.857988l119.999765 119.999766c7.795985 7.789985 7.795985 20.47796 0.002 28.271945zM834.004371 691.996648h-0.014c-11.045978 0-19.991961 8.955983-19.991961 19.999961s8.959983 19.999961 20.005961 19.999961 19.999961-8.955983 19.999961-19.999961-8.953983-19.999961-19.999961-19.999961z" p-id="2791"></path></svg>