<?xml version="1.0" standalone="no"?><!DOCTYPE svg PUBLIC "-//W3C//DTD SVG 1.1//EN" "http://www.w3.org/Graphics/SVG/1.1/DTD/svg11.dtd"><svg t="1650959311642" class="icon" viewBox="0 0 1024 1024" version="1.1" xmlns="http://www.w3.org/2000/svg" p-id="7606" xmlns:xlink="http://www.w3.org/1999/xlink" width="200" height="200"><defs><style type="text/css">@font-face { font-family: feedback-iconfont; src: url("//at.alicdn.com/t/font_1031158_u69w8yhxdu.woff2?t=1630033759944") format("woff2"), url("//at.alicdn.com/t/font_1031158_u69w8yhxdu.woff?t=1630033759944") format("woff"), url("//at.alicdn.com/t/font_1031158_u69w8yhxdu.ttf?t=1630033759944") format("truetype"); }
</style></defs><path d="M192.0055 60.001531m-39.999688 0a39.999688 39.999688 0 1 0 79.999375 0 39.999688 39.999688 0 1 0-79.999375 0Z" fill="#CFCDF5" p-id="7607"></path><path d="M471.999313 60.001531V99.999219h79.999375V19.999844h-79.999375z" fill="#8481E2" p-id="7608"></path><path d="M831.9945 59.999531m-39.999687 0a39.999688 39.999688 0 1 0 79.999375 0 39.999688 39.999688 0 1 0-79.999375 0Z" fill="#CFCDF5" p-id="7609"></path><path d="M612.644214 284.007781l-43.757658-80.001375L511.999 99.999219l-56.885556 104.005187-43.757658 80.001375-57.54555 105.209178 58.189545 126.909009h199.998438l58.189545-126.909009-57.54355-105.207178z m-100.645214 63.559504c22.367825 0 40.499684 18.131858 40.499684 40.499683s-18.131858 40.499684-40.499684 40.499684-40.499684-18.131858-40.499684-40.499684 18.133858-40.499684 40.499684-40.499683z" fill="#FBF7F6" p-id="7610"></path><path d="M511.999 388.064968m-40.499684 0a40.499684 40.499684 0 1 0 80.999368 0 40.499684 40.499684 0 1 0-80.999368 0Z" fill="#99EBFB" p-id="7611"></path><path d="M611.998219 516.125968H392.001937v79.999375h239.996126v-79.999375z" fill="#FFC234" p-id="7612"></path><path d="M411.999781 596.125343h199.998438v227.87022h-199.998438z" fill="#FF5D7F" p-id="7613"></path><path d="M631.998063 516.125968v79.999375h-19.999844v227.87022h351.99725V284.007781H612.644214l57.54355 105.209178-58.189545 126.909009z" fill="#99EBFB" p-id="7614"></path><path d="M612.644214 284.007781h351.351255v-40.003687c0-21.999828-17.999859-39.999688-39.999688-39.999688H568.886556l43.757658 80.003375zM411.355786 284.007781l43.757658-80.001375H100.002219c-21.999828 0-39.999688 17.999859-39.999688 39.999688v40.003687h351.353255z" fill="#CDD3E0" p-id="7615"></path><path d="M411.355786 284.007781H60.002531v539.987782h351.99725V596.125343h-19.997844v-79.999375h19.997844l-58.189545-126.909009z" fill="#99EBFB" p-id="7616"></path><path d="M411.999781 823.995563h-351.99725v80.001375h331.997407c0 10.999914 8.99793 19.999844 19.999843 19.999843h199.998438c10.999914 0 19.999844-8.99993 19.999844-19.999843h331.997406v-80.001375h-551.995688z" fill="#CDD3E0" p-id="7617"></path><path d="M391.999938 903.998938h-371.997094v59.999531c0 21.999828 17.999859 39.999688 39.999687 39.999687h903.996938c21.999828 0 39.999688-17.999859 39.999687-39.999687v-59.999531H632.000062c0 10.999914-8.99793 19.999844-19.999843 19.999843h-199.998438c-11.001914 0-20.001844-8.99993-20.001843-19.999843z" fill="#8690AF" p-id="7618"></path><path d="M1003.997156 883.999094h-19.999843V244.006094c0-33.083742-26.91579-59.999531-59.999532-59.999532H580.742463L545.734736 119.999063h6.265951c11.045914 0 19.999844-8.95393 19.999844-19.999844V79.999375H775.434942c8.255936 23.277818 30.485762 39.999688 56.559558 39.999688 33.083742 0 59.999531-26.91579 59.999531-59.999532S865.078242 0 831.9945 0c-26.071796 0-48.303623 16.721869-56.559558 39.999688H571.998531V19.999844c0-11.045914-8.95393-19.999844-19.999843-19.999844h-79.999375c-11.045914 0-19.999844 8.95393-19.999844 19.999844v19.999844H248.565058C240.309123 16.721869 218.079296 0 192.0055 0c-33.083742 0-59.999531 26.91579-59.999531 59.999531s26.91579 59.999531 59.999531 59.999532c26.071796 0 48.303623-16.721869 56.559558-39.999688h203.436411v19.999844c0 11.045914 8.95393 19.999844 19.999843 19.999844h6.265952L443.257537 184.006562h-163.254725c-11.045914 0-19.999844 8.95393-19.999843 19.999844s8.95393 19.999844 19.999843 19.999844h141.376896l-21.879829 40.001687H80.002375v-20.001843c0-11.027914 8.97193-19.999844 19.999844-19.999844 11.045914 0 19.999844-8.95393 19.999843-19.999844s-8.95393-19.999844-19.999843-19.999844c-33.083742 0-59.999531 26.91579-59.999532 59.999532v639.993h-19.999843c-11.045914 0-19.999844 8.95393-19.999844 19.999844v59.999531c0 33.083742 26.91579 59.999531 59.999531 59.999531h903.996938c33.083742 0 59.999531-26.91579 59.999531-59.999531v-59.999531c-0.002-11.047914-8.95593-19.999844-20.001844-19.999844zM831.9945 39.999688c11.027914 0 19.999844 8.97193 19.999844 19.999843s-8.97193 19.999844-19.999844 19.999844-19.999844-8.97193-19.999844-19.999844 8.97193-19.999844 19.999844-19.999843zM192.0055 79.999375c-11.027914 0-19.999844-8.97193-19.999844-19.999844s8.97193-19.999844 19.999844-19.999843c11.023914 0 19.993844 8.96593 19.999844 19.989843v0.02C211.999344 71.033445 203.029414 79.999375 192.0055 79.999375z m239.994125 723.996344v-187.870532h159.99875v187.870532h-159.99875z m-3.099976-510.384013l0.074-0.135999 43.681658-79.861376 0.078-0.143999 19.267849-35.225725v152.734807c-23.557816 8.277935-40.499684 30.73576-40.499683 57.087554 0 33.359739 27.139788 60.499527 60.499527 60.499528s60.499527-27.139788 60.499527-60.499528c0-26.351794-16.941868-48.809619-40.499683-57.087554V178.244607l19.267849 35.225725 0.078 0.143999 43.689658 79.877376 0.058 0.103999 52.733588 96.413247-48.65762 106.119171h-174.334638l-48.65762-106.119171 52.721588-96.397247z m83.091351 73.955422h0.02c11.297912 0.006 20.48984 9.197928 20.48984 20.49984 0 11.303912-9.195928 20.49984-20.49984 20.49984s-20.49984-9.195928-20.49984-20.49984c-0.002-11.301912 9.189928-20.49584 20.48984-20.49984z m-99.989219 208.558371v-39.999687h199.892439l0.091999 0.003999h0.012v39.995688h-199.996438z m219.996282 39.999688c11.045914 0 19.999844-8.95393 19.999843-19.999844v-79.999375c0-7.419942-4.049968-13.881892-10.049921-17.333865l46.419637-101.239209a20.001844 20.001844 0 0 0-0.631995-17.93386l-41.357677-75.613409h297.617675V803.993719h-311.997562v-187.868532z m291.997718-392.118937c11.027914 0 19.999844 8.97193 19.999844 19.999844v20.001843H624.500121l-21.879829-40.001687h321.375489zM491.999156 39.999688h39.999688v39.999687h-39.999688V39.999688z m-114.379106 264.007937l-41.357677 75.613409a19.995844 19.995844 0 0 0-0.631995 17.93386l46.421637 101.241209c-5.999953 3.451973-10.049921 9.913923-10.049921 17.331865v79.999375c0 11.045914 8.95393 19.999844 19.997844 19.999844v187.870532h-311.997563V304.007625h297.617675zM80.002375 843.995406h863.99325v40.001688h-311.997562c-11.045914 0-19.999844 8.95393-19.999844 19.999844h-199.998438c0-11.045914-8.95393-19.999844-19.999843-19.999844h-311.997563v-40.001688z m903.994938 120.003063c0 11.027914-8.97193 19.999844-19.997844 19.999844H60.000531c-11.027914 0-19.999844-8.97193-19.999844-19.999844v-39.999688h337.367365c6.925946 11.947907 19.855845 19.999844 34.631729 19.999844h199.998438c14.775885 0 27.705784-8.051937 34.631729-19.999844h337.367365v39.999688z" p-id="7619"></path><path d="M210.009359 204.006406c0-11.045914-8.95393-19.999844-19.999843-19.999844h-0.014c-11.045914 0-19.991844 8.95393-19.991844 19.999844s8.95993 19.999844 20.005844 19.999844 19.999844-8.95393 19.999843-19.999844zM704.0115 723.994344H703.9955c-11.045914 0-19.993844 8.95393-19.993844 19.999844s8.96193 19.999844 20.007844 19.999843 19.999844-8.95393 19.999844-19.999843c0.002-11.045914-8.95193-19.999844-19.997844-19.999844zM883.994094 723.994344h-89.991297c-11.045914 0-19.999844 8.95393-19.999844 19.999844s8.95393 19.999844 19.999844 19.999843H883.994094c11.045914 0 19.999844-8.95393 19.999844-19.999843s-8.95393-19.999844-19.999844-19.999844z" p-id="7620"></path></svg>