<?xml version="1.0" standalone="no"?><!DOCTYPE svg PUBLIC "-//W3C//DTD SVG 1.1//EN" "http://www.w3.org/Graphics/SVG/1.1/DTD/svg11.dtd"><svg t="1651039849074" class="icon" viewBox="0 0 1024 1024" version="1.1" xmlns="http://www.w3.org/2000/svg" p-id="2784" xmlns:xlink="http://www.w3.org/1999/xlink" width="200" height="200"><defs><style type="text/css">@font-face { font-family: feedback-iconfont; src: url("//at.alicdn.com/t/font_1031158_u69w8yhxdu.woff2?t=1630033759944") format("woff2"), url("//at.alicdn.com/t/font_1031158_u69w8yhxdu.woff?t=1630033759944") format("woff"), url("//at.alicdn.com/t/font_1031158_u69w8yhxdu.ttf?t=1630033759944") format("truetype"); }
</style></defs><path d="M208.366943 270.404258s16.104106 62.098771 18.397867 82.80405c2.304 20.698453-41.396905 66.696531-41.396906 89.698984 0 23.005866 9.18528 64.409598 59.794772 85.111464 50.609492 20.701866 57.504425 73.601704 57.504424 105.81333 0 32.197972-18.397866 94.296744-18.397866 94.296743s-11.496106 154.105168 50.602665 181.705381c62.095358 27.600212 48.302078 27.600212 62.095358 27.600212 13.779626 0 114.98837 41.424212 174.796794 25.313279 59.811838-16.080213 75.892051-34.491732 75.892051-34.491732s59.811838 4.601173 78.192638-48.302078c18.411519-52.879358 29.890559-163.293861 22.988799-213.896527s-16.110933-117.288956 25.285972-140.305062c41.400319-22.985386 85.09781-50.602665 78.192638-73.591464S808.618657 396.960413 808.618657 396.960413s-9.20576-57.480531-2.331307-71.287464c6.905173-13.78304 48.302078-48.305492 25.289386-73.591464-22.985386-25.289386-64.413011-25.289386-64.413011-25.289386l-52.875945 4.573867s-89.668264-80.520531-206.98794-75.919358c-117.234343 4.601173-190.853114 75.892051-190.853113 75.892051s-39.096319-13.80352-73.598291 0c-34.522452 13.806933-41.396905 0-34.495146 39.096319z" fill="#FBA919" p-id="2785"></path><path d="M418.553176 612.870806s-45.550932 69.645651-78.960637 119.070716c-5.167786 7.645866 33.409706 8.174933 33.409706 8.174933l45.554345-127.249062z m21.684906-144.394235s-13.728426 34.252799-21.251412 52.411732c-8.164693 19.739306-39.290879 29.559466-39.290879 29.559465s16.138239-16.923306 16.13824-59.798184c0-17.960959 23.217493-25.118719 23.217492-25.11872l21.189973 2.976427z" fill="#E78724" p-id="2786"></path><path d="M426.356056 487.833584s-28.132692 33.484799-80.363517 14.735359c-52.244478-18.749439-57.596585-85.73269-57.596585-104.485543s99.123197 18.752853 112.517116 26.791253 38.836905 40.181759 25.442986 62.958931zM229.048329 130.013862s48.216745-9.386666 80.363518 16.06656c32.160426 25.449812 41.523199 45.547518 41.523198 45.547518L296.751794 234.577912s-26.180266-12.141226-34.222079-46.970878c-8.031573-34.826239-2.67264-50.896212-33.484799-57.593172z" fill="#E78724" p-id="2787"></path><path d="M412.296537 391.116787c-20.766719-29.470719-54.978558-42.325332-82.295464-44.458665-46.578345-3.638613-68.693331 12.827306-68.693331 12.827306s76.284584 3.229013 98.269863 32.109226c40.932692 53.746345 100.648957 58.111998 110.19605 46.308691-11.042133 0.549547-23.186773-4.922027-36.188159-17.213439-8.123733-7.69024-14.708053-20.220586-21.295786-29.573119z m-128.785063 104.202236s-84.633597-29.098666-68.553384-58.559144c16.076799-29.474132 3.283627-45.533865 3.283626-45.533865s-47.264425 35.283625-35.225598 72.785917c7.406933 23.012693 19.824639 39.683412 88.00597 71.625384 32.699732 60.733438 6.751573 170.082981 8.308053 170.588155 2.59072 0.83968 45.916158-21.415253 42.956799-123.719676-0.897707-31.433386-3.396267-74.291198-38.758399-87.227731z m110.916263-312.886602c-35.491839 18.032639-84.111357 43.137705-84.111357 43.137705l19.135146 9.570986c-1.82272 2.962773-2.706773 4.727467-2.706773 4.727467l19.619839 8.929279s47.936852 34.734079 77.322238 57.060692c-9.796266-30.156799-38.563839-77.540691-38.563839-77.540691s-8.168106-21.770239 9.260373-45.888852z m117.89653 734.948668c-109.083303 0-146.032635-55.374505-146.032635-55.374504l17.049599 41.509545c6.444373 17.964373 75.185491 73.844051 128.819196 73.844051" fill="#E78724" p-id="2788"></path><path d="M378.248538 824.575973s10.0352 61.337598 50.220371 61.337597c34.146986 0 44.209492-51.810985 44.209492-62.518611l-94.433277 1.181014z m-66.877438-92.501331c3.570347-9.8304 16.073386-49.568425 20.087466-85.729277 4.799147-43.315199 3.06176-106.66325 3.06176-106.66325s-10.72128 41.526612-20.125013 48.237225c-9.373013 6.690133-26.804906 52.230825-26.804906 52.230825s-9.345706 67.795624-13.779626 90.583037c12.294826 2.464427 22.623573-4.778667 37.498879 1.34144z m-97.041063-268.738551s22.760106-8.041813 29.470719-57.596585c6.690133-49.565012-8.045226-92.42965-8.045227-92.42965s1.338027 68.314451-6.693546 81.715197c-8.045226 13.387093-14.73536 17.407999-24.115199 34.829653-9.383253 17.418239 4.01408 28.122452 9.383253 33.484799z" fill="#E78724" p-id="2789"></path><path d="M241.510409 141.735249l-4.645546-2.94912c-13.704533 0.467627 4.64896 2.94912 4.648959 2.94912z" fill="#FDC168" p-id="2790"></path><path d="M412.968963 167.751674s-21.428906-3.570347-32.150185-19.640319c-10.717866-16.076799-41.076052-48.230398-89.473704-48.588798-48.387412-0.365227-96.26965 12.86144-96.26965 12.861439l41.792852 26.385066c4.42368-0.14336 12.151466-0.085333 24.934399 0.334507 52.449278 1.7408 60.525225 53.606398 60.525225 53.606398l184.872953-25.453226" fill="#FBA919" p-id="2791"></path><path d="M430.817283 454.294172s-25.006079 25.006079-63.406078 16.964266c-38.403412-8.034986-61.627731-25.002666-63.412905-54.476799-1.785173-29.470719 8.045226-41.076052 8.045227-41.076052s42.885119 13.4144 63.429971 31.266133c20.544853 17.879039 35.727359 46.448638 55.374505 47.346345z" fill="#FFFFFF" p-id="2792"></path><path d="M400.561497 445.371718s-21.684906 9.905493-45.926398 1.83296c-31.733759-10.581333-33.850026-43.588265-33.850026-43.588265s-19.462826 57.128958 35.112959 68.126718c43.775999 8.81664 69.666131-16.547839 69.666131-16.54784l-25.002666-9.823573z" fill="#C9C9C9" p-id="2793"></path><path d="M415.969283 155.634341c-2.33472-48.994985 37.829972-88.019624 51.746132-89.67509 0.768 8.301226-0.774827 40.683519 13.134506 50.640212 4.051627-26.439679 17.749333-55.603198 71.833598-74.714451-11.584853 30.719999-1.54624 56.456531 3.232426 68.382718 36.932265-33.518932 61.815465-27.982506 61.815465-27.982506s-25.661439 44.281172-15.622826 73.338877c-74.141011-5.81632-185.777487 7.87456-186.139301 0.01024zM258.788702 230.260046c-17.687893-14.677333-4.5056-28.296532-5.901653-44.970666-0.75776-8.871253-1.457493-17.244159-4.386134-21.865812-16.281599-25.702399-54.674772-33.501866-55.067304-33.583786l-18.018986-3.529386 11.929599-13.960533c1.542827-1.809067 50.548052-48.554665 126.382076-24.081066 53.046612 17.111039 92.310184 75.117224 93.77109 77.465597l-26.579626 12.50304c-0.3072-0.494933-31.348052-55.019518-76.84437-69.690024-36.768425-11.871573-70.673064-0.580267-85.210451 6.819839 15.435093 6.16448 35.614719 17.387519 47.796905 36.590933 5.75488 9.0624 6.7072 20.486826 7.635627 31.539199 1.232213 14.636373 2.382507 28.453546 13.161812 37.399892l-28.627625 9.362773z m-47.247359 214.237859s22.289066-27.637759 28.890453-81.414824c2.594133-21.183146-2.013867-62.962345-9.383253-79.03573 1.338027 39.519572-8.704 79.035731-8.704 79.03573s-6.765226 73.376424-10.779306 81.414824z" fill="#463014" p-id="2794"></path><path d="M329.079473 202.345807c-0.013653-0.054613-7.154346-31.259306-26.944853-47.011839-27.927892-22.210559-62.020265-10.3936-62.351358-10.2912l-4.939093-15.295146c1.655467-0.53248 40.639145-12.813653 76.537171 12.43136 36.119892 25.391786 40.471892 48.404478 40.837119 50.947412l-23.128746 9.219413z m-47.523839 222.330872s-11.69408-16.738986-9.591466-35.147092c1.047893-9.09312 5.259946-18.421759 12.782933-21.732693 13.974186-6.120106 20.179626 9.710933 20.179626 9.710933s-19.674453 4.85376-23.354026 47.179092z" fill="#463014" p-id="2795"></path><path d="M409.937923 450.194758c0.488107 0.914773 0.73728 1.42336 0.73728 1.42336s-36.471465 27.371519-73.84405-0.402773c-20.012373-14.875306-18.117973-51.671038-11.99104-67.276798 15.940266 3.621547 29.457066 10.134186 40.758612 17.739093-14.277973-12.741973-26.781012-22.118399-26.746879-22.340266l-16.2304-4.604586-31.546025-10.8032c-0.406187 2.413227-11.912533 56.354131 21.299199 93.09525 14.72512 16.305493 83.739304 52.794025 116.507303-9.598293l-18.944 2.833067z" fill="#463014" p-id="2796"></path><path d="M406.510937 454.212252c20.534613 31.249066 72.342184 13.390506 71.451304-19.65056 0 0-34.618026 19.107839-65.198078-16.069973-17.858559-20.514133-75.079677-77.154984-152.668155-58.320211 53.582505 11.78624 124.518396 60.733438 146.414929 94.07829z" fill="#463014" p-id="2797"></path><path d="M252.849502 542.395715c4.939093 2.853547 22.357333 20.893013 22.367573 47.878825 0 13.530453-1.348267 81.506984-8.045227 123.030183 10.07616 6.546773 17.093973 7.936 27.122346 14.609066 5.024426-48.093865 8.62208-117.800956 6.94272-145.940475-1.908053-32.078506-19.083946-53.606398-34.996906-62.784851-4.969813-2.8672-10.1888-5.690026-15.438506-8.526507-27.279359-14.738773-55.487145-29.989546-55.487145-56.026451 0-20.367359 7.91552-26.736639 16.305493-33.491626l0.90112-0.730453c5.556906-4.49536 11.871573-9.591466 15.602346-17.960959 10.1888-22.882986 11.844266-81.169064 0-95.969277-5.891413-7.379626-21.722453-32.187732-17.175893-48.834559 1.7408-6.36928 5.75488-11.086506 12.264107-14.424746 6.905173-3.536213 16.223573-5.33504 27.702612-5.33504 22.538239 0 47.547732 6.85056 60.426238 10.94656 46.086825 14.595413 101.683197 56.695465 117.626876 69.270184l0.785067 0.587094 10.188799 7.099733-6.369279-10.69056c-0.392533-0.67584-40.782505-67.106131-113.025703-91.470503-14.062933-4.744533-41.649492-12.683946-68.788905-12.683947-16.138239 0-29.866666 2.80576-40.724478 8.362667-13.21984 6.765226-22.173013 17.568426-25.907199 31.211519-9.120426 33.450666 20.602879 70.696958 21.613226 71.905277 3.4816 6.17472 4.939093 51.080532-3.06176 69.072211-1.092267 2.46784-4.096 4.911787-7.942827 7.99744-1.1776 0.955733-2.525867 1.96608-3.956053 3.03104-11.281066 8.506026-28.347732 21.387946-28.347732 51.053225 0 40.584532 41.175039 62.617598 74.236584 80.298664 5.444266 2.9184 10.60864 5.666133 15.295146 8.362666z" fill="#463014" p-id="2798"></path><path d="M258.788702 230.260046c-17.687893-14.677333-4.5056-28.296532-5.901653-44.970666-0.75776-8.871253-1.457493-17.244159-4.386134-21.865812-16.281599-25.702399-54.674772-33.501866-55.067304-33.583786l-18.018986-3.529386 11.929599-13.960533c1.542827-1.809067 50.548052-48.554665 126.382076-24.081066 53.046612 17.111039 92.310184 75.117224 93.77109 77.465597l-26.579626 12.50304c-0.3072-0.494933-31.348052-55.019518-76.84437-69.690024-36.768425-11.871573-70.673064-0.580267-85.210451 6.819839 15.435093 6.16448 35.614719 17.387519 47.796905 36.590933 5.75488 9.0624 6.7072 20.486826 7.635627 31.539199 1.232213 14.636373 2.382507 28.453546 13.161812 37.399892l-28.627625 9.362773z" fill="#463014" p-id="2799"></path><path d="M258.215262 233.267192l-1.143467-0.948906c-13.11744-10.861226-10.789546-21.609813-8.536746-31.965866 1.024-4.77184 2.106027-9.741653 1.665706-14.820693-0.7168-8.533333-1.399467-16.588799-3.973119-20.657492-15.493119-24.473599-52.961278-32.303786-53.326505-32.389119l-22.510933-4.43392 14.933333-17.42848c0.279893-0.3072 31.743999-32.078506 85.012477-32.078505 14.5408 0 29.412692 2.413227 44.202665 7.212373 55.350611 17.851733 94.86677 77.994664 95.231997 78.585171l1.600853 2.553173-31.464105 14.820693-1.262934-1.993387c-3.36896-5.75488-33.201492-54.954665-75.414184-68.567038-10.356053-3.36896-21.275306-5.051733-32.443732-5.051733-20.206933 0-36.601172 5.5296-45.329065 9.20576 14.595413 6.567253 32.249172 17.626453 43.448318 35.280212 6.089386 9.6256 7.072426 21.357226 8.024747 32.699732 1.181013 14.114133 2.304 27.391999 12.209493 35.614719l3.734186 3.085653-34.635092 11.3664z" fill="#463014" p-id="2800"></path><path d="M329.079473 202.345807c-0.013653-0.054613-7.154346-31.259306-26.944853-47.011839-27.927892-22.210559-62.020265-10.3936-62.351358-10.2912l-4.939093-15.295146c1.655467-0.53248 40.639145-12.813653 76.537171 12.43136 36.119892 25.391786 40.471892 48.404478 40.837119 50.947412l-23.128746 9.219413z" fill="#463014" p-id="2801"></path><path d="M327.140699 205.99466l-0.696319-3.072c-0.07168-0.29696-7.072426-30.433279-26.0096-45.486079-10.786133-8.587946-23.797759-12.936533-38.645758-12.936532-11.59168 0-20.206933 2.778453-21.1456 3.085653l-2.56 0.8704-6.621866-20.404906 2.54976-0.812374c1.153707-0.365227 11.482453-3.59424 26.132479-3.594239 19.309226 0 37.553492 5.669546 52.790612 16.390826 37.048319 26.043732 41.567572 50.100905 41.960105 52.766718l0.33792 2.102613-28.009813 11.17184zM261.789022 139.134289c15.865173 0 30.395732 4.881067 41.987412 14.100479 16.814079 13.390506 24.719359 37.021012 27.112105 45.499732l18.21696-7.263573c-1.64864-6.434133-8.9088-25.736532-39.294292-47.097172-14.53056-10.216106-31.252479-15.390719-49.704959-15.390719-10.12736 0-17.988266 1.611093-21.879466 2.594133l3.283627 10.161493c3.816107-1.027413 11.147946-2.604373 20.278613-2.604373z m164.997114 732.057575c-7.918933 0-15.994879-2.8672-21.592746-7.714133-4.287147-3.69664-18.776746-17.012053-25.169919-33.317545-2.38592-6.099626-1.85344-10.973866 1.611093-14.4896 2.38592-2.402987 7.338666-5.280426 17.38752-5.280426l7.150933-0.01024c8.533333-0.01024 22.872746-0.01024 35.140265-0.01024h11.758933c7.662933 0 13.134506 1.655467 16.278186 4.881066 4.041387 4.15744 2.751147 9.46176 1.62816 12.240213-1.96608 4.881067-10.103466 20.770133-23.913812 35.505492-4.939093 5.30432-12.12416 8.22272-20.234239 8.22272z m8.2944-415.156893l-28.573012-1.839786s7.304533 12.878506 12.035412 29.532159c5.341866 18.831359-4.88448 46.366718-4.884479 46.366718s38.099625-43.137705 21.422079-74.069331z m-35.676159 490.598384c-101.70709-7.816533-137.489062-103.922343-137.489062-123.938129l26.559146 0.01024h-13.277866 13.277866c0.136533 8.669866 27.163306 90.879997 112.967676 97.474557l-2.034347 26.494292z" fill="#463014" p-id="2802"></path><path d="M370.838191 774.475068c-1.5872-9.18528-1.75104-17.896106 0.187734-26.456746-7.7312-5.809493-21.599573-7.970133-32.006826-11.3664-8.533333-5.389653-52.063572 5.49888-83.667624-32.727039-39.601492-47.882238-31.266132-76.479144-31.266132-76.479144-10.15808 11.281066-19.981653 6.959786-35.474772 59.555838s7.2704 89.251837 49.704958 126.047569c20.036266 17.373866 48.387412 24.528213 72.748371 27.279359-8.168106-8.195413 13.950293-9.038506 29.187412-14.735359-1.232213-12.322133 0.815787-24.248319 9.99424-33.877332 5.5296-5.809493 12.65664-9.260373 20.036266-12.038827 0.423253-0.955733 0.761173-1.826133 1.153707-2.751146a24.794453 24.794453 0 0 1-0.648534-2.58048z" fill="#FFFFFF" p-id="2803"></path><path d="M340.077232 825.361039c-0.877227-2.583893-1.542827-5.2224-2.194773-7.867733-0.703147-2.891093-4.212053-11.093333 0.11264-1.73056a34.713599 34.713599 0 0 1-2.37568-7.355733c-68.706984-0.088747-128.488102-47.261012-116.923729-146.449062-8.983893-11.943253-21.585919 24.081066-21.58592 24.081066S162.730678 785.919974 251.562675 824.627173c29.610666 12.909226 55.770451 22.166186 61.945172 18.431999 12.8512 2.6112 24.473599-6.3488 28.822185-12.24704-0.812373-1.809067-1.542827-3.618133-2.187946-5.45792z" fill="#C9C9C9" p-id="2804"></path><path d="M369.605978 760.081041c0.1024-8.37632 1.815893-16.486399 5.864107-24.562346 0.279893-0.559787 0.610987-1.092267 0.91136-1.631573-26.436266-0.22528-56.890025-2.761387-82.821118-13.134506-28.487679-11.403946-64.136531-50.408105-70.280531-96.235517 0 0-53.661012 41.420799-37.887998 130.075303 14.789973 83.251197 84.449277 110.394023 163.908261 114.984956 0.054613-0.539307-8.925866-19.087359-6.0928-30.440106-45.100372 3.283627-95.566503-14.144853-119.900156-54.224211-22.282239-36.652372-16.025599-99.26997-6.874453-108.448424 22.367573 70.533118 102.778877 84.872531 153.214288 83.640318z" fill="#463014" p-id="2805"></path><path d="M377.914031 709.587603c-14.298453 41.956692-43.502932 75.912531-43.502932 75.912531s40.174932-1.85344 42.390186-8.956587c1.641813-5.246293 36.273492-86.302717 49.565011-181.282127-12.50304 20.548266-47.230292 110.694396-48.452265 114.288636z" fill="#463014" p-id="2806"></path><path d="M605.50485 612.870806s45.533865 69.645651 78.957224 119.070716c5.1712 7.645866-33.419946 8.174933-33.419945 8.174933z m-21.695146-144.394235s13.735253 34.252799 21.244586 52.411732c8.168106 19.739306 39.294292 29.559466 39.294292 29.559465s-16.138239-16.923306-16.138239-59.798184c0-17.960959-23.217493-25.118719-23.217493-25.11872l-21.162666 2.976427z" fill="#E78724" p-id="2807"></path><path d="M597.674664 487.833584s28.129279 33.484799 80.373757 14.735359 57.599998-85.73269 57.599998-104.485543-99.123197 18.752853-112.520529 26.791253c-13.400746 8.0384-38.843732 40.181759-25.453226 62.958931z m197.304313-357.819722s-48.216745-9.386666-80.370344 16.06656c-32.163839 25.449812-41.540265 45.547518-41.540265 45.547518l54.169598 42.946559s26.187092-12.137813 34.215252-46.967465c8.024746-34.826239 2.6624-50.896212 33.484799-57.593172z" fill="#E78724" p-id="2808"></path><path d="M611.76149 391.116787c20.763306-29.470719 54.964905-42.325332 82.292051-44.458665 46.581758-3.638613 68.683091 12.827306 68.683091 12.827306s-76.284584 3.229013-98.273277 32.109226c-40.936105 53.746345-100.628477 58.111998-110.178983 46.308691 11.031893 0.549547 23.183359-4.922027 36.181332-17.213439 8.106666-7.69024 14.70464-20.220586 21.271893-29.573119z m128.774822 104.202236s84.633597-29.098666 68.560211-58.562558c-16.073386-29.498026-3.290453-45.550932-3.290453-45.550931s47.274665 35.280212 35.218772 72.775677c-7.40352 23.016106-19.817813 39.686825-88.002557 71.625384-32.723626 60.736851-6.761813 170.086394-8.304639 170.588155-2.6112 0.843093-45.919572-21.411839-42.973866-123.716263 0.90112-31.402666 3.39968-74.291198 38.761812-87.231144z m-110.906023-312.886602a18190.60846 18190.60846 0 0 1 84.104531 43.137705l-19.114666 9.570986c1.826133 2.962773 2.72384 4.727467 2.72384 4.727467l-19.616426 8.929279S629.790716 283.531937 600.40533 305.85855c9.796266-30.156799 38.536532-77.540691 38.536532-77.540691s8.164693-21.770239-9.263786-45.888852z m-117.896529 734.948668c109.066236 0 146.015568-55.374505 146.015568-55.374504l-17.035946 41.509545c-6.444373 17.964373-75.188904 73.844051-128.815782 73.844051" fill="#E78724" p-id="2809"></path><path d="M645.806076 824.575973s-10.04544 61.337598-50.220372 61.337597c-34.143572 0-44.202665-51.810985-44.202665-62.518611z m66.874024-92.501331c-3.570347-9.8304-16.069973-49.568425-20.094293-85.729277-4.816213-43.315199-3.05152-106.66325-3.05152-106.66325s10.72128 41.526612 20.084053 48.237225c9.386666 6.690133 26.794666 52.230825 26.794666 52.230825s9.32864 67.795624 13.765973 90.583037c-12.284586 2.464427-22.620159-4.778667-37.495466 1.34144z m97.054717-268.738551s-22.777173-8.041813-29.470719-57.596585c-6.69696-49.565012 8.0384-92.42965 8.038399-92.42965s-1.344853 68.314451 6.679894 81.715197c8.02816 13.39392 14.73536 17.407999 24.108372 34.829653 9.376426 17.414826-4.041387 28.122452-9.373013 33.484799z" fill="#E78724" p-id="2810"></path><path d="M782.520311 141.735249l4.6592-2.94912c13.704533 0.467627-4.6592 2.94912-4.6592 2.94912z" fill="#FDC168" p-id="2811"></path><path d="M611.089063 167.751674s21.435733-3.570347 32.146773-19.640319c10.72128-16.076799 41.089705-48.230398 89.483943-48.588798 48.394238-0.365227 96.26965 12.86144 96.26965 12.861439l-41.792852 26.385066c-4.42368-0.14336-12.151466-0.085333-24.944639 0.334507-52.442452 1.7408-60.518398 53.606398-60.518398 53.606398l-184.845647-25.453226" fill="#FBA919" p-id="2812"></path><path d="M593.237331 454.294172s25.009492 25.006079 63.402664 16.964266c38.406825-8.034986 61.627731-25.002666 63.412905-54.476799 1.78176-29.470719-8.034986-41.076052-8.034987-41.076052s-42.871465 13.4144-63.409491 31.266133-35.717119 46.448638-55.371091 47.346345z" fill="#FFFFFF" p-id="2813"></path><path d="M623.493116 445.371718s21.695146 9.905493 45.929812 1.83296c31.743999-10.581333 33.853439-43.588265 33.853439-43.588265s19.455999 57.128958-35.123199 68.126718c-43.765759 8.81664-69.659304-16.547839-69.659304-16.54784l24.999252-9.823573z" fill="#C9C9C9" p-id="2814"></path><path d="M765.259085 230.260046c17.687893-14.677333 4.512427-28.296532 5.90848-44.970666 0.750933-8.871253 1.450667-17.244159 4.379306-21.865812 16.281599-25.702399 54.681598-33.501866 55.074132-33.583786l18.022399-3.529386-11.929599-13.960533c-1.54624-1.809067-50.551465-48.554665-126.38549-24.081066-53.043198 17.111039-92.310184 75.117224-93.767676 77.465597l26.576212 12.50304c0.3072-0.494933 31.351466-55.019518 76.875091-69.690024 36.768425-11.871573 70.673064-0.580267 85.183144 6.819839-15.438506 6.16448-35.618132 17.387519-47.796906 36.590933-5.75488 9.0624-6.710613 20.486826-7.635626 31.539199-1.235627 14.636373-2.413227 28.453546-13.192533 37.399892l28.603733 9.362773z m47.233705 214.237859s-22.275413-27.637759-28.876799-81.414824c-2.594133-21.183146 2.003627-62.962345 9.373013-79.03573-1.34144 39.519572 8.71424 79.035731 8.71424 79.03573s6.775466 73.376424 10.789546 81.414824z" fill="#463014" p-id="2815"></path><path d="M694.978554 202.345807c0.013653-0.054613 7.15776-31.259306 26.951679-47.011839 27.921066-22.210559 62.020265-10.3936 62.337705-10.2912l4.966399-15.295146c-1.655467-0.53248-40.622079-12.813653-76.54741 12.43136-36.147199 25.391786-40.471892 48.404478-40.864426 50.947412l23.125333 9.219413z m47.527252 222.330872s11.690666-16.738986 9.577813-35.147092c-1.037653-9.09312-5.249706-18.421759-12.76928-21.732693-13.9776-6.120106-20.172799 9.710933-20.172799 9.710933s19.671039 4.85376 23.364266 47.179092z" fill="#463014" p-id="2816"></path><path d="M614.120103 450.194758c-0.484693 0.914773-0.73728 1.42336-0.73728 1.42336s36.454399 27.371519 73.830398-0.402773c20.022613-14.875306 18.135039-51.671038 11.987626-67.276798-15.926613 3.621547-29.443412 10.134186-40.755199 17.739093 14.288213-12.741973 26.787839-22.118399 26.743466-22.340266l16.244053-4.604586 31.518719-10.8032c0.392533 2.413227 11.89888 56.354131-21.333333 93.09525-14.731946 16.305493-83.749544 52.794025-116.503889-9.598293l18.943999 2.833067z" fill="#463014" p-id="2817"></path><path d="M617.51637 454.212252c-20.534613 31.249066-72.328531 13.390506-71.430824-19.65056 0 0 34.607786 19.107839 65.187837-16.069973 17.855146-20.514133 75.083091-77.154984 152.674982-58.320211-53.579092 11.78624-124.525223 60.733438-146.431995 94.07829z" fill="#463014" p-id="2818"></path><path d="M771.208525 542.395715c-4.939093 2.853547-22.370986 20.893013-22.370986 47.878825-0.01024 13.530453 1.34144 81.506984 8.045226 123.030183-10.07616 6.546773-17.093973 7.936-27.122346 14.609066-5.024426-48.093865-8.635733-117.800956-6.946133-145.940475 1.918293-32.078506 19.087359-53.606398 35.010559-62.784851 4.98688-2.8672 10.205866-5.690026 15.465813-8.526507 27.279359-14.738773 55.487145-29.989546 55.487145-56.026451 0-20.367359-7.92576-26.736639-16.305493-33.491626l-0.897707-0.730453c-5.556906-4.49536-11.86816-9.591466-15.585279-17.960959-10.1888-22.882986-11.874986-81.169064-0.03072-95.969277 5.894826-7.379626 21.725866-32.187732 17.179306-48.834559-1.7408-6.36928-5.75488-11.086506-12.26752-14.424746-6.90176-3.536213-16.220159-5.33504-27.699199-5.33504-22.538239 0-47.547732 6.85056-60.429651 10.94656-46.083412 14.595413-101.683197 56.695465-117.654183 69.270184-0.447147 0.334507-0.730453 0.559787-0.785066 0.587094l-10.216107 7.099733 6.36928-10.69056c0.395947-0.67584 40.782505-67.106131 113.025703-91.470503 14.062933-4.744533 41.649492-12.683946 68.788904-12.683947 16.138239 0 29.835946 2.80576 40.697172 8.362667 13.21984 6.765226 22.173013 17.568426 25.907199 31.211519 9.120426 33.450666-20.572159 70.696958-21.613226 71.905277-3.4816 6.17472-4.939093 51.080532 3.06176 69.072211 1.092267 2.46784 4.123307 4.911787 7.942827 7.99744 1.204907 0.955733 2.525867 1.96608 3.956053 3.03104 11.281066 8.506026 28.347732 21.387946 28.347732 51.053225 0 40.584532-41.147732 62.617598-74.205864 80.298664-5.420373 2.9184-10.612053 5.666133-15.271253 8.362666z" fill="#463014" p-id="2819"></path><path d="M722.12138 225.484792c-6.546773-11.08992-23.285759-32.494932-61.866665-51.309224-43.052372-20.981759-92.883624-31.631359-148.125008-31.658666v-0.01024h-0.197974v0.027307c-55.234558 0.027307-105.079463 10.693973-148.135248 31.658665-38.560425 18.834773-55.289171 40.219305-61.856425 51.305812l-2.80576 3.734186 33.030826 7.348907 1.058133-1.317547 0.556374-1.21856c0.505173-2.19136 4.939093-13.9776 41.772372-31.938559 39.376212-19.203413 85.295784-28.938239 136.488955-28.965545 51.193172 0.02048 97.10933 9.75872 136.485542 28.965545 36.823039 17.960959 41.284265 29.747199 41.789439 31.931733l0.535893 1.215146 1.037653 1.32096 33.034239-7.355733-2.80576-3.713707z" fill="#463014" p-id="2820"></path><path d="M765.259085 230.260046c17.687893-14.677333 4.512427-28.296532 5.90848-44.970666 0.750933-8.871253 1.450667-17.244159 4.379306-21.865812 16.281599-25.702399 54.681598-33.501866 55.074132-33.583786l18.022399-3.529386-11.929599-13.960533c-1.54624-1.809067-50.551465-48.554665-126.38549-24.081066-53.043198 17.111039-92.310184 75.117224-93.767676 77.465597l26.576212 12.50304c0.3072-0.494933 31.351466-55.019518 76.875091-69.690024 36.768425-11.871573 70.673064-0.580267 85.183144 6.819839-15.438506 6.16448-35.618132 17.387519-47.796906 36.590933-5.75488 9.0624-6.710613 20.486826-7.635626 31.539199-1.235627 14.636373-2.413227 28.453546-13.192533 37.399892l28.603733 9.362773z" fill="#463014" p-id="2821"></path><path d="M731.214499 221.924686l3.720534-3.099307c9.908906-8.219306 11.01824-21.490346 12.212906-35.601065 0.96256-11.3664 1.952427-23.098026 8.034986-32.723626 11.175253-17.653759 28.869972-28.685652 43.444905-35.280212-8.727893-3.70688-25.122132-9.20576-45.342718-9.20576-11.17184 0-22.067199 1.682773-32.433492 5.024427-42.212692 13.612373-72.034984 62.784851-75.414184 68.563624l-1.262934 1.993387-31.464105-14.789973 1.600853-2.553173c0.375467-0.590507 39.854079-60.736851 95.21493-78.588584 14.820693-4.799147 29.695999-7.212373 44.233385-7.212373 53.299198 0 84.759891 31.771306 85.012477 32.081919l14.933333 17.455786-22.510932 4.406613c-0.365227 0.058027-37.833385 7.91552-53.326505 32.389119-2.553173 4.068693-3.229013 12.12416-3.959467 20.657492-0.41984 5.07904 0.648533 10.018133 1.686187 14.81728 2.245973 10.356053 4.573867 21.108053-8.533333 31.969279l-1.122987 0.925013-34.631679-11.366399z" fill="#463014" p-id="2822"></path><path d="M694.978554 202.345807c0.013653-0.054613 7.15776-31.259306 26.951679-47.011839 27.921066-22.210559 62.020265-10.3936 62.337705-10.2912l4.966399-15.295146c-1.655467-0.53248-40.622079-12.813653-76.54741 12.43136-36.147199 25.391786-40.471892 48.404478-40.864426 50.947412l23.125333 9.219413z" fill="#463014" p-id="2823"></path><path d="M668.904101 194.83306l0.3072-2.0992c0.395947-2.655573 4.922027-26.719572 41.949866-52.749651 15.240533-10.704213 33.512106-16.366933 52.794025-16.366933 14.650026 0 24.978773 3.229013 26.129065 3.59424l2.556587 0.83968-6.621866 20.404906-2.56-0.843094c-0.95232-0.3072-9.567573-3.085653-21.128533-3.085653-14.848 0-27.845972 4.379307-38.621865 12.967253-18.916693 15.069866-25.934506 45.185705-25.98912 45.496319l-0.67584 3.085653-28.009812-11.17184z m113.643517-53.101225l3.29728-10.154666c-3.8912-0.989867-11.76576-2.594133-21.89312-2.594133-18.449066 0-35.174399 5.18144-49.704958 15.394133-30.388906 21.357226-37.649065 40.659625-39.297705 47.093758l18.234026 7.26016c2.38592-8.475306 10.284373-32.112639 27.101865-45.496319 11.618986-9.222826 26.129066-14.097066 41.983999-14.097066 9.12384 0 16.476159 1.570133 20.295679 2.594133z m-205.51338 721.250963c-13.800106-14.75584-21.964799-30.634666-23.937706-35.512319-1.1264-2.778453-2.41664-8.072533 1.634987-12.2368 3.15392-3.218773 8.62208-4.870827 16.267946-4.870826h11.786239c12.26752 0 26.606932 0 35.140266 0.027307l7.15776 0.027306c10.04544 0 15.015253 2.891093 17.373866 5.277013 3.4816 3.508907 4.010667 8.393386 1.624746 14.51008-6.396586 16.305493-20.879359 29.637972-25.173332 33.314132-5.614933 4.857173-13.6704 7.72096-21.582506 7.72096-8.113493 0-15.298559-2.921813-20.237653-8.195413z m11.946666-406.96148l28.559359-1.839786s-7.297706 12.878506-12.025173 29.532159c-5.358933 18.831359 4.881067 46.366718 4.881067 46.366718s-38.113279-43.141119-21.439146-74.069331z" fill="#463014" p-id="2824"></path><path d="M512.013653 354.013855c-18.213546 0-41.960105-0.498347-59.774291-13.305173 0 0 23.326719 40.898559 59.743571 40.898559l0.027307-5.174614 0.034133 5.174614c36.420265 0 59.746985-40.891732 59.746985-40.891732-17.817599 12.8-41.581225 13.30176-59.777705 13.301759z" fill="#E78724" p-id="2825"></path><path d="M562.169172 353.815882c-18.271573 11.0592-34.583892 14.88896-50.145279 15.230292-15.564799-0.341333-31.877119-4.171093-50.148691-15.226879 0 0 26.606932 32.471039 50.015571 32.723625v0.03072h0.129707c0.04096 0 0.08192 0.027307 0.129707 0.027307 23.408639-0.252587 50.042878-32.699732 50.042878-32.699732z m62.463998 592.848193l-2.041174-26.480639c85.800957-6.59456 112.82773-88.811517 112.967677-97.464317h26.579625c0.027307 20.012373-35.785385 116.128423-137.468582 123.941543z" fill="#463014" p-id="2826"></path><path d="M653.216422 774.475068c1.594027-9.18528 1.747627-17.896106-0.187733-26.456746 7.74144-5.809493 21.599573-7.970133 32.006825-11.3664 8.50944-5.389653 52.070398 5.49888 83.667624-32.727039 39.581012-47.882238 31.235412-76.479144 31.235412-76.479144 10.161493 11.281066 19.988479 6.959786 35.471359 59.555838 15.493119 52.599465-7.284053 89.251837-49.711785 126.047569-20.036266 17.373866-48.380585 24.528213-72.751784 27.279359 8.164693-8.195413-13.922986-9.038506-29.163519-14.735359 1.235627-12.322133-0.812373-24.248319-9.990826-33.877332-5.502293-5.809493-12.629333-9.260373-20.012373-12.038827-0.41984-0.955733-0.75776-1.826133-1.150293-2.751146 0.252587-0.843093 0.477867-1.682773 0.648533-2.58048z" fill="#FFFFFF" p-id="2827"></path><path d="M683.950074 825.361039c0.89088-2.583893 1.542827-5.2224 2.198187-7.867733 0.7168-2.891093 4.225707-11.093333-0.1024-1.73056a34.713599 34.713599 0 0 0 2.372266-7.355733c68.710398-0.088747 128.488102-47.261012 116.930557-146.449062 8.994133-11.943253 21.599573 24.081066 21.599572 24.081066s34.399572 99.880957-54.442665 138.591569c-29.600426 12.909226-55.756798 22.166186-61.931518 18.431999-12.868266 2.6112-24.473599-6.3488-28.815359-12.247039 0.812373-1.809067 1.570133-3.618133 2.218667-5.45792z" fill="#C9C9C9" p-id="2828"></path><path d="M654.452049 760.081041c-0.095573-8.37632-1.815893-16.486399-5.853867-24.562346-0.283307-0.559787-0.6144-1.092267-0.914773-1.631573 26.439679-0.22528 56.893438-2.761387 82.82453-13.134506 28.501332-11.403946 64.153598-50.408105 70.280531-96.235517 0 0 53.678078 41.420799 37.905066 130.075303-14.81728 83.251197-84.469757 110.394023-163.918501 114.984956-0.044373-0.539307 8.93952-19.087359 6.099626-30.440106 45.100372 3.283627 95.566503-14.144853 119.927463-54.224211 22.285653-36.652372 16.025599-99.26997 6.874453-108.448424-22.340266 70.533118-102.775463 84.872531-153.214288 83.640318z" fill="#463014" p-id="2829"></path><path d="M686.530554 780.960401c-9.489066-10.26048-26.941439-22.493866-67.181224-22.493866l-107.158183-0.064854h-0.252587c-30.873599 0.023893-107.18549 0.068267-107.18549 0.068267-40.219305 0-57.678505 12.233386-67.164158 22.490453-13.837653 14.92992-15.998293 35.706879-6.427306 61.675518 25.429332 69.116584 61.183998 139.335675 180.804261 139.434662v0.01024h0.139946c0.058027 0 0.085333 0.027307 0.139947 0.027306 119.620263-0.08192 155.374928-70.304424 180.804261-139.434662 9.570986-25.961812 7.410346-46.728532-6.427307-61.661864z m-18.623146 56.828584c-12.117333 34.706772-44.680532 118.715729-155.883515 118.862503-111.206396-0.146773-143.759355-84.152317-155.880101-118.862503-6.700373-19.251199-6.191786-33.505279 1.570133-42.359465 5.307733-6.048426 17.486506-13.274453 45.243732-13.274453l29.003092-0.006826c21.394773-0.02048 48.257705-0.044373 80.073384-0.058027 31.798612 0.013653 58.675198 0.034133 80.066558 0.058027l28.989439 0.01024c27.767466 0 39.946239 7.212373 45.250558 13.243732 7.755093 8.843946 8.270506 23.101439 1.56672 42.356052z" fill="#463014" p-id="2830"></path><path d="M646.116689 709.587603c14.29504 41.956692 43.496105 75.912531 43.496105 75.912531s-40.161279-1.85344-42.379945-8.956587c-1.62816-5.246293-36.263252-86.302717-49.537705-181.282127 12.516693 20.548266 47.237118 110.694396 48.469332 114.288636z" fill="#463014" p-id="2831"></path></svg>