<?xml version="1.0" standalone="no"?><!DOCTYPE svg PUBLIC "-//W3C//DTD SVG 1.1//EN" "http://www.w3.org/Graphics/SVG/1.1/DTD/svg11.dtd"><svg t="1651040020694" class="icon" viewBox="0 0 1024 1024" version="1.1" xmlns="http://www.w3.org/2000/svg" p-id="9393" xmlns:xlink="http://www.w3.org/1999/xlink" width="200" height="200"><defs><style type="text/css">@font-face { font-family: feedback-iconfont; src: url("//at.alicdn.com/t/font_1031158_u69w8yhxdu.woff2?t=1630033759944") format("woff2"), url("//at.alicdn.com/t/font_1031158_u69w8yhxdu.woff?t=1630033759944") format("woff"), url("//at.alicdn.com/t/font_1031158_u69w8yhxdu.ttf?t=1630033759944") format("truetype"); }
</style></defs><path d="M682.666667 384c0-36.266667-27.733333-64-64-64s-64 27.733333-64 64 27.733333 64 64 64 64-27.733333 64-64" fill="#2F3CF4" p-id="9394"></path><path d="M74.666667 727.466667c6.4-12.8 19.2-23.466667 34.133333-23.466667 142.933333-12.8 253.866667-134.4 253.866667-277.333333 0-98.133333-53.333333-189.866667-138.666667-241.066667-12.8-8.533333-21.333333-21.333333-21.333333-36.266667s6.4-29.866667 19.2-36.266666C296.533333 66.133333 381.866667 42.666667 469.333333 42.666667c258.133333 0 469.333333 211.2 469.333334 469.333333s-211.2 469.333333-469.333334 469.333333c-157.866667 0-305.066667-78.933333-392.533333-213.333333-8.533333-12.8-8.533333-27.733333-2.133333-40.533333z m292.266666-74.666667c-44.8 57.6-106.666667 100.266667-179.2 121.6C260.266667 851.2 362.666667 896 469.333333 896c211.2 0 384-172.8 384-384S680.533333 128 469.333333 128c-49.066667 0-98.133333 8.533333-142.933333 27.733333C403.2 224 448 322.133333 448 426.666667c0 55.466667-12.8 106.666667-34.133333 153.6 40.533333 23.466667 91.733333 21.333333 132.266666-4.266667 19.2-12.8 46.933333-8.533333 59.733334 12.8 12.8 19.2 8.533333 46.933333-12.8 59.733333-34.133333 23.466667-76.8 34.133333-117.333334 34.133334-38.4 0-74.666667-10.666667-108.8-29.866667z" fill="#2F3CF4" p-id="9395"></path></svg>