<?xml version="1.0" standalone="no"?><!DOCTYPE svg PUBLIC "-//W3C//DTD SVG 1.1//EN" "http://www.w3.org/Graphics/SVG/1.1/DTD/svg11.dtd"><svg t="1653885464618" class="icon" viewBox="0 0 1024 1024" version="1.1" xmlns="http://www.w3.org/2000/svg" p-id="1630" data-darkreader-inline-fill="" xmlns:xlink="http://www.w3.org/1999/xlink" width="200" height="200"><defs><style type="text/css">@font-face { font-family: feedback-iconfont; src: url(&quot;//at.alicdn.com/t/font_1031158_u69w8yhxdu.woff2?t=1630033759944&quot;) format(&quot;woff2&quot;), url(&quot;//at.alicdn.com/t/font_1031158_u69w8yhxdu.woff?t=1630033759944&quot;) format(&quot;woff&quot;), url(&quot;//at.alicdn.com/t/font_1031158_u69w8yhxdu.ttf?t=1630033759944&quot;) format(&quot;truetype&quot;); }</style></defs><path d="M239.855734 776.895638h121.240111L323.531914 890.23435H239.855734v-113.338712z m0-215.478012h192.647905l-37.554706 113.339866H239.855734v-113.339866zM239.855734 345.946534h264.06723l-37.566237 113.336406H239.855734V345.946534z m383.55455 0H924.828113v113.336406H585.852119L623.410284 345.946534z m-71.4101 215.471092H924.828113v113.342172H514.438559l37.561625-113.342172z m-71.41356 215.478012H924.828113V890.23435H443.027305l37.559319-113.338712z" fill="#F26D61" p-id="1631" data-darkreader-inline-fill="" style="--darkreader-inline-fill:#8e160c"/><path d="M230.260355 0.854221a15.74514 15.74514 0 0 0-17.541751 5.227238L102.48879 147.805012a15.748599 15.748599 0 0 0 0 19.337208l110.229814 141.724706a15.752058 15.752058 0 0 0 17.535985 5.219167 15.74514 15.74514 0 0 0 10.635522-14.888347v-62.830649c84.703638 1.76317 125.393765 17.84157 145.833387 35.319898 19.431767 16.613463 22.991548 36.155933 26.692013 56.626689l0.960576 5.275671c0.705729 3.774267 2.767565 7.161075 5.796896 9.521578a15.74168 15.74168 0 0 0 20.813243-1.281152 15.752058 15.752058 0 0 0 4.584933-10.161577c2.707601-43.273188-1.354954-105.978142-31.920405-158.431574-29.667145-50.910514-83.081153-90.057724-172.760643-94.151414V15.75064A15.742833 15.742833 0 0 0 230.260355 0.853067z" fill="#717171" p-id="1632" data-darkreader-inline-fill="" style="--darkreader-inline-fill:#555c60" data-spm-anchor-id="a313x.7781069.0.i0" class="selected"/></svg>