<?xml version="1.0" standalone="no"?><!DOCTYPE svg PUBLIC "-//W3C//DTD SVG 1.1//EN" "http://www.w3.org/Graphics/SVG/1.1/DTD/svg11.dtd"><svg t="1653527759152" class="icon" viewBox="0 0 1024 1024" version="1.1" xmlns="http://www.w3.org/2000/svg" p-id="6839" data-darkreader-inline-fill="" xmlns:xlink="http://www.w3.org/1999/xlink" width="200" height="200"><defs><style type="text/css">@font-face { font-family: feedback-iconfont; src: url(&quot;//at.alicdn.com/t/font_1031158_u69w8yhxdu.woff2?t=1630033759944&quot;) format(&quot;woff2&quot;), url(&quot;//at.alicdn.com/t/font_1031158_u69w8yhxdu.woff?t=1630033759944&quot;) format(&quot;woff&quot;), url(&quot;//at.alicdn.com/t/font_1031158_u69w8yhxdu.ttf?t=1630033759944&quot;) format(&quot;truetype&quot;); }</style></defs><path d="M0 0h1.28C0.96 0.32 0.32 1.066667 0 1.493333V0z" fill="#FFD074" p-id="6840" data-darkreader-inline-fill="" style="--darkreader-inline-fill:#ffcd6b"/><path d="M313.173333 100.48c122.026667-60.053333 271.786667-62.186667 394.133334-2.133333-4.16 4.693333-12.48 14.08-16.64 18.666666-111.146667-53.44-249.706667-52.906667-360.32 1.6-4.373333-4.586667-12.906667-13.653333-17.173334-18.133333z" fill="#EDA950" p-id="6841" data-darkreader-inline-fill="" style="--darkreader-inline-fill:#975c10"/><path d="M198.72 132.906667c-1.173333-57.28 82.88-77.013333 114.453333-32.426667 4.266667 4.48 12.8 13.546667 17.173334 18.133333-0.96 20.8-3.626667 41.6-10.773334 61.226667-16.533333-12.053333-20.373333-32.533333-25.706666-50.88-0.96-3.84-2.666667-11.413333-3.52-15.253333-34.026667-28.053333-61.973333 7.573333-91.626667 19.2z" fill="#AF4A1C" p-id="6842" data-darkreader-inline-fill="" style="--darkreader-inline-fill:#e48459"/><path d="M330.346667 118.613333c110.613333-54.506667 249.173333-55.04 360.32-1.6 1.28 18.346667 2.666667 36.586667 3.413333 54.933334-4.693333 2.026667-13.973333 6.186667-18.56 8.213333-9.386667 28.48 22.293333 40.533333 40.32 54.293333-62.293333 6.72-169.386667 65.28-112.96 137.706667-53.973333-1.386667-107.946667-0.96-161.92 0.64 2.453333-27.626667 1.493333-58.346667-21.44-77.653333-67.306667-61.76-165.76-66.88-251.84-55.253334 28.693333-50.666667 78.506667-80.853333 126.186667-110.933333 5.333333 18.346667 9.173333 38.826667 25.706666 50.88 7.146667-19.626667 9.813333-40.426667 10.773334-61.226667z" fill="#FDE877" p-id="6843" data-darkreader-inline-fill="" style="--darkreader-inline-fill:#635401"/><path d="M707.306667 98.346667c33.6-45.973333 112.746667-22.72 117.44 33.6-29.653333 3.413333-55.893333-58.666667-89.173334-19.413334l-11.946666 14.933334c-4.266667 12.266667-7.893333 24.64-12.266667 36.906666-4.373333 1.92-13.013333 5.653333-17.28 7.573334-0.746667-18.346667-2.133333-36.586667-3.413333-54.933334 4.16-4.586667 12.48-13.973333 16.64-18.666666z" fill="#AF4A1C" p-id="6844" data-darkreader-inline-fill="" style="--darkreader-inline-fill:#e48459"/><path d="M143.04 245.12c35.946667-56 88.426667-100.8 147.306667-131.413333 0.853333 3.84 2.56 11.413333 3.52 15.253333-47.68 30.08-97.493333 60.266667-126.186667 110.933333-6.186667 1.28-18.453333 3.946667-24.64 5.226667zM723.626667 127.466667l11.946666-14.933334c65.066667 36.906667 126.506667 87.893333 161.28 155.093334-6.72-4.266667-20.266667-12.8-26.986666-17.066667l-3.84-2.986667c-37.12-50.24-95.36-79.893333-142.4-120.106666z" fill="#EDA950" p-id="6845" data-darkreader-inline-fill="" style="--darkreader-inline-fill:#975c10"/><path d="M711.36 164.373333c4.373333-12.266667 8-24.64 12.266667-36.906666 47.04 40.213333 105.28 69.866667 142.4 120.106666-49.706667-7.253333-99.626667-16.533333-150.186667-13.12-18.026667-13.76-49.706667-25.813333-40.32-54.293333 4.586667-2.026667 13.866667-6.186667 18.56-8.213333 4.266667-1.92 12.906667-5.653333 17.28-7.573334z" fill="#FFD074" p-id="6846" data-darkreader-inline-fill="" style="--darkreader-inline-fill:#ffcd6b"/><path d="M142.72 245.333333c0.106667-0.106667 0.213333-0.106667 0.32-0.213333-0.106667 0.106667-0.213333 0.106667-0.32 0.213333z" fill="#EDA950" p-id="6847" data-darkreader-inline-fill="" style="--darkreader-inline-fill:#eeac56"/><path d="M143.04 245.12c6.186667-1.28 18.453333-3.946667 24.64-5.226667 86.08-11.626667 184.533333-6.506667 251.84 55.253334 22.933333 19.306667 23.893333 50.026667 21.44 77.653333 53.973333-1.6 107.946667-2.026667 161.92-0.64-56.426667-72.426667 50.666667-130.986667 112.96-137.706667 50.56-3.413333 100.48 5.866667 150.186667 13.12l3.84 2.986667c6.72 4.266667 20.266667 12.8 26.986666 17.066667 0.533333 0.32 1.493333 0.96 2.026667 1.28 65.92 29.12 58.346667 105.706667 66.133333 165.226666-5.76 0.746667-17.173333 2.346667-22.933333 3.093334l-11.093333 1.706666c-1.92 7.36-5.546667 21.866667-7.36 29.226667l-28.48 8c-1.6 6.613333-5.013333 19.946667-6.613334 26.56-7.253333 1.386667-21.866667 4.053333-29.12 5.44-1.493333 7.04-4.373333 21.226667-5.76 28.373333-82.133333 4.373333-164.48 0.106667-246.613333 3.626667 6.4-27.84-10.773333-35.733333-34.56-35.946667-1.173333-7.04-3.626667-21.12-4.8-28.16-46.826667 7.786667-33.813333-41.386667-35.306667-70.613333-23.36 0-46.613333 0.426667-69.866666 1.28 0 21.653333 0.106667 43.2 0.106666 64.853333-8.32 0.746667-25.066667 2.133333-33.493333 2.88-1.6 10.24-3.2 20.586667-4.8 30.933334-7.68 1.066667-23.146667 3.306667-30.826667 4.373333-1.173333 7.893333-3.306667 23.573333-4.373333 31.466667-69.333333 0.96-138.666667 0.426667-208.106667 2.026666-2.453333-10.56-4.8-21.226667-7.253333-31.786666-7.146667-0.96-21.44-2.773333-28.586667-3.626667-3.733333-10.133333-7.573333-20.16-11.413333-30.293333-6.933333-1.066667-20.8-3.306667-27.733333-4.373334-0.64-7.786667-2.026667-23.146667-2.773334-30.826666-7.893333 0.106667-23.786667 0.426667-31.68 0.533333 0.106667-18.986667 0.32-37.866667 0.533334-56.853333l0.746666-8.853334c18.453333 11.2 30.506667-21.013333 6.933334-20.053333-34.346667-50.133333 32.32-83.2 62.933333-111.786667 0.106667-0.106667 0.213333-0.106667 0.32-0.213333m486.826667 39.253333c31.146667 0.746667 59.413333 31.04 46.293333 62.4 57.173333-8.96 116.16-7.573333 173.546667-1.28 29.013333 16.746667 59.2 31.04 93.76 22.506667 12.053333-34.986667-11.306667-71.253333-43.413334-84.906667-81.28-43.84-193.386667-58.88-270.186666 1.28m-522.56-1.813333c33.706667-0.213333 67.626667 29.226667 53.44 64.426667 45.44-8.96 91.946667-4.693333 137.92-5.12 47.146667-7.573333 78.933333 43.946667 126.826666 29.12 14.506667-31.36-4.586667-66.24-32.533333-81.92-84.16-53.44-199.893333-59.2-285.653333-6.506667m41.706666 84.8c64.96 14.933333 136-0.213333 203.2 6.08-54.826667-39.573333-141.333333-29.12-203.2-6.08m513.813334-0.32c67.093333 9.173333 135.253333 0.106667 202.773333 3.2-59.413333-33.813333-140.16-26.026667-202.773333-3.2m-344.746667 41.066667l5.12 34.133333-38.826667-2.133333c1.066667 7.68 3.306667 23.04 4.373334 30.72l28.586666 0.426666c-14.4 45.013333 50.346667 49.28 39.573334 2.666667 22.613333 5.973333 42.133333-8.853333 34.453333-32.96-10.24 0.106667-30.826667 0.32-41.173333 0.533333 1.493333-8.533333 4.266667-25.386667 5.76-33.813333l-37.866667 0.426667m72-3.413334l1.28 36.266667c45.653333 12.053333 42.88-50.88-1.28-36.266667m391.786667-1.28l2.56 39.68-38.506667-4.693333c0.96 8.746667 2.666667 26.346667 3.52 35.093333l33.813333-7.68c0 9.493333 0.106667 28.48 0.106667 38.08 19.84 9.28 56.533333-13.226667 26.346667-29.653333 20.48 1.173333 61.013333-2.56 40.96-32.533333-10.666667-1.92-32-5.866667-42.666667-7.786667 31.04-14.4-4.266667-41.386667-26.133333-30.506667m70.72 0.213334c-0.533333 9.493333-1.386667 28.586667-1.92 38.08 48.213333 9.386667 52.8-53.653333 1.92-38.08m-598.293334 99.52c23.146667 21.12 35.093333-13.333333 34.453334-32.32-19.52-2.88-57.6 8-34.453334 32.32m457.706667-30.72c0.32 8 0.853333 24 1.173333 32 8.64 0 26.026667-0.106667 34.666667-0.106667 0.426667-7.68 1.173333-23.146667 1.6-30.826667-9.386667-0.213333-28.053333-0.746667-37.44-1.066666z" fill="#1F1F1F" p-id="6848" data-darkreader-inline-fill="" style="--darkreader-inline-fill:#17191a"/><path d="M629.866667 284.373333c76.8-60.16 188.906667-45.12 270.186666-1.28 32.106667 13.653333 55.466667 49.92 43.413334 84.906667-34.56 8.533333-64.746667-5.76-93.76-22.506667-57.386667-6.293333-116.373333-7.68-173.546667 1.28 13.12-31.36-15.146667-61.653333-46.293333-62.4z" fill="#FFFFFF" p-id="6849" data-darkreader-inline-fill="" style="--darkreader-inline-fill:#181a1b"/><path d="M866.026667 247.573333l3.84 2.986667-3.84-2.986667z" fill="#FFD074" p-id="6850" data-darkreader-inline-fill="" style="--darkreader-inline-fill:#ffcd6b"/><path d="M107.306667 282.56c85.76-52.693333 201.493333-46.933333 285.653333 6.506667 27.946667 15.68 47.04 50.56 32.533333 81.92-47.893333 14.826667-79.68-36.693333-126.826666-29.12-45.973333 0.426667-92.48-3.84-137.92 5.12 14.186667-35.2-19.733333-64.64-53.44-64.426667z" fill="#FFFFFF" p-id="6851" data-darkreader-inline-fill="" style="--darkreader-inline-fill:#181a1b"/><path d="M896.853333 267.626667c0.533333 0.32 1.493333 0.96 2.026667 1.28-0.533333-0.32-1.493333-0.96-2.026667-1.28zM79.786667 357.12c23.573333-0.96 11.52 31.253333-6.933334 20.053333 1.813333-5.013333 5.226667-15.04 6.933334-20.053333z" fill="#EDA950" p-id="6852" data-darkreader-inline-fill="" style="--darkreader-inline-fill:#975c10"/><path d="M149.013333 367.36c61.866667-23.04 148.373333-33.493333 203.2 6.08-67.2-6.293333-138.24 8.853333-203.2-6.08zM662.826667 367.04c62.613333-22.826667 143.36-30.613333 202.773333 3.2-67.52-3.093333-135.68 5.973333-202.773333-3.2z" fill="#FDE877" p-id="6853" data-darkreader-inline-fill="" style="--darkreader-inline-fill:#635401"/><path d="M239.68 881.173333C88 772.053333 18.24 564.16 72.106667 386.026667c-0.213333 18.986667-0.426667 37.866667-0.533334 56.853333-2.133333 97.28 9.706667 201.28 64.426667 284.053333 65.706667 99.413333 163.84 182.72 282.88 206.72 111.146667 30.4 231.893333 1.173333 327.573333-59.52 143.146667-91.413333 220.8-269.653333 195.626667-436.906666 5.76-0.746667 17.173333-2.346667 22.933333-3.093334 29.973333 170.24-43.093333 353.28-185.6 452.16-156.053333 114.56-386.026667 112.64-539.733333-5.12z" fill="#EDA950" p-id="6854" data-darkreader-inline-fill="" style="--darkreader-inline-fill:#975c10"/><path d="M318.08 408.106667l37.866667-0.426667c-1.493333 8.426667-4.266667 25.28-5.76 33.813333-6.72 0.213333-20.266667 0.533333-26.986667 0.746667l-5.12-34.133333zM390.08 404.693333c44.16-14.613333 46.933333 48.32 1.28 36.266667l-1.28-36.266667z" fill="#999A9D" p-id="6855" data-darkreader-inline-fill="" style="--darkreader-inline-fill:#a9a196"/><path d="M462.506667 406.72c23.253333-0.853333 46.506667-1.28 69.866666-1.28 1.493333 29.226667-11.52 78.4 35.306667 70.613333 1.173333 7.04 3.626667 21.12 4.8 28.16 23.786667 0.213333 40.96 8.106667 34.56 35.946667 29.973333 2.986667 60.16 4.8 90.346667 6.293333-54.08 88.853333-139.946667 161.28-241.6 188.373334-33.92 9.493333-72.96 11.733333-97.066667 41.066666-86.613333-37.12-154.986667-117.226667-167.466667-212.053333-18.986667 87.573333 46.293333 167.893333 112.426667 217.386667-6.826667 2.773333-20.48 8.426667-27.306667 11.2-43.84-27.52-90.026667-51.84-140.373333-65.493334-54.72-82.773333-66.56-186.773333-64.426667-284.053333 7.893333-0.106667 23.786667-0.426667 31.68-0.533333 0.746667 7.68 2.133333 23.04 2.773334 30.826666 6.933333 1.066667 20.8 3.306667 27.733333 4.373334 3.84 10.133333 7.68 20.16 11.413333 30.293333 7.146667 0.853333 21.44 2.666667 28.586667 3.626667 2.453333 10.56 4.8 21.226667 7.253333 31.786666 69.44-1.6 138.773333-1.066667 208.106667-2.026666 1.066667-7.893333 3.2-23.573333 4.373333-31.466667 7.68-1.066667 23.146667-3.306667 30.826667-4.373333 1.6-10.346667 3.2-20.693333 4.8-30.933334 8.426667-0.746667 25.173333-2.133333 33.493333-2.88 0-21.653333-0.106667-43.2-0.106666-64.853333z" fill="#FDE877" p-id="6856" data-darkreader-inline-fill="" style="--darkreader-inline-fill:#635401"/><path d="M781.866667 403.413333c21.866667-10.88 57.173333 16.106667 26.133333 30.506667-5.866667 2.346667-17.706667 6.933333-23.573333 9.173333l-2.56-39.68zM852.586667 403.626667c50.88-15.573333 46.293333 47.466667-1.92 38.08 0.533333-9.493333 1.386667-28.586667 1.92-38.08zM284.373333 440.106667l38.826667 2.133333c-1.493333 7.253333-4.373333 21.76-5.866667 29.013333l-28.586666-0.426666c-1.066667-7.68-3.306667-23.04-4.373334-30.72z" fill="#999A9D" p-id="6857" data-darkreader-inline-fill="" style="--darkreader-inline-fill:#50575b"/><path d="M323.2 442.24c6.72-0.213333 20.266667-0.533333 26.986667-0.746667 1.706667 8.106667 5.12 24.32 6.72 32.426667-9.92-0.64-29.653333-2.026667-39.573334-2.666667 1.493333-7.253333 4.373333-21.76 5.866667-29.013333z" fill="#1F1F1F" p-id="6858" data-darkreader-inline-fill="" style="--darkreader-inline-fill:#d4d1cb"/><path d="M350.186667 441.493333c10.346667-0.213333 30.933333-0.426667 41.173333-0.533333 7.68 24.106667-11.84 38.933333-34.453333 32.96-1.6-8.106667-5.013333-24.32-6.72-32.426667zM745.92 438.4l38.506667 4.693333c-0.32 5.653333-0.853333 17.066667-1.173334 22.72l-33.813333 7.68c-0.853333-8.746667-2.56-26.346667-3.52-35.093333z" fill="#999A9D" p-id="6859" data-darkreader-inline-fill="" style="--darkreader-inline-fill:#50575b"/><path d="M784.426667 443.093333c5.866667-2.24 17.706667-6.826667 23.573333-9.173333l1.706667 40.32c-6.613333-2.133333-19.84-6.293333-26.453334-8.426667 0.32-5.653333 0.853333-17.066667 1.173334-22.72z" fill="#1F1F1F" p-id="6860" data-darkreader-inline-fill="" style="--darkreader-inline-fill:#d4d1cb"/><path d="M808 433.92c10.666667 1.92 32 5.866667 42.666667 7.786667 20.053333 29.973333-20.48 33.706667-40.96 32.533333l-1.706667-40.32z" fill="#999A9D" p-id="6861" data-darkreader-inline-fill="" style="--darkreader-inline-fill:#a9a196"/><path d="M930.986667 438.933333l11.093333-1.706666c25.173333 167.253333-52.48 345.493333-195.626667 436.906666-95.68 60.693333-216.426667 89.92-327.573333 59.52-119.04-24-217.173333-107.306667-282.88-206.72 50.346667 13.653333 96.533333 37.973333 140.373333 65.493334 6.826667-2.773333 20.48-8.426667 27.306667-11.2 135.146667 85.866667 327.04 77.653333 447.466667-30.613334 47.36-48 84.693333-113.28 79.466666-182.826666-39.786667 204.373333-295.146667 294.293333-471.893333 208.106666 24.106667-29.333333 63.146667-31.573333 97.066667-41.066666 101.653333-27.093333 187.52-99.52 241.6-188.373334-30.186667-1.493333-60.373333-3.306667-90.346667-6.293333 82.133333-3.52 164.48 0.746667 246.613333-3.626667 1.386667-7.146667 4.266667-21.333333 5.76-28.373333 7.253333-1.386667 21.866667-4.053333 29.12-5.44 1.6-6.613333 5.013333-19.946667 6.613334-26.56l28.48-8c1.813333-7.36 5.44-21.866667 7.36-29.226667z" fill="#FFD074" p-id="6862" data-darkreader-inline-fill="" style="--darkreader-inline-fill:#865900"/><path d="M254.293333 503.146667c-23.146667-24.32 14.933333-35.2 34.453334-32.32 0.64 18.986667-11.306667 53.44-34.453334 32.32zM317.333333 471.253333c9.92 0.64 29.653333 2.026667 39.573334 2.666667 10.773333 46.613333-53.973333 42.346667-39.573334-2.666667zM712 472.426667c9.386667 0.32 28.053333 0.853333 37.44 1.066666-0.426667 7.68-1.173333 23.146667-1.6 30.826667-8.64 0-26.026667 0.106667-34.666667 0.106667-0.32-8-0.853333-24-1.173333-32zM783.253333 465.813333c6.613333 2.133333 19.84 6.293333 26.453334 8.426667 30.186667 16.426667-6.506667 38.933333-26.346667 29.653333 0-9.6-0.106667-28.586667-0.106667-38.08z" fill="#999A9D" p-id="6863" data-darkreader-inline-fill="" style="--darkreader-inline-fill:#50575b"/><path d="M303.68 781.226667c-66.133333-49.493333-131.413333-129.813333-112.426667-217.386667 12.48 94.826667 80.853333 174.933333 167.466667 212.053333 176.746667 86.186667 432.106667-3.733333 471.893333-208.106666 5.226667 69.546667-32.106667 134.826667-79.466666 182.826666-120.426667 108.266667-312.32 116.48-447.466667 30.613334z" fill="#690201" p-id="6864" data-darkreader-inline-fill="" style="--darkreader-inline-fill:#540201"/></svg>