<?xml version="1.0" standalone="no"?><!DOCTYPE svg PUBLIC "-//W3C//DTD SVG 1.1//EN" "http://www.w3.org/Graphics/SVG/1.1/DTD/svg11.dtd"><svg t="1650977793748" class="icon" viewBox="0 0 1024 1024" version="1.1" xmlns="http://www.w3.org/2000/svg" p-id="13503" xmlns:xlink="http://www.w3.org/1999/xlink" width="200" height="200"><defs><style type="text/css">@font-face { font-family: feedback-iconfont; src: url(&quot;//at.alicdn.com/t/font_1031158_u69w8yhxdu.woff2?t=1630033759944&quot;) format(&quot;woff2&quot;), url(&quot;//at.alicdn.com/t/font_1031158_u69w8yhxdu.woff?t=1630033759944&quot;) format(&quot;woff&quot;), url(&quot;//at.alicdn.com/t/font_1031158_u69w8yhxdu.ttf?t=1630033759944&quot;) format(&quot;truetype&quot;); }</style></defs><path d="M415.36 277.333333h-27.584a13.802667 13.802667 0 0 0-13.824 13.802667v82.816c0 7.637333 6.186667 13.824 13.824 13.824h27.605333c7.616 0 13.802667-6.186667 13.802667-13.824v-82.816A13.802667 13.802667 0 0 0 415.36 277.333333zM636.224 277.333333H608.64a13.802667 13.802667 0 0 0-13.802667 13.802667v82.816c0 7.637333 6.186667 13.824 13.802667 13.824h27.605333c7.637333 0 13.824-6.186667 13.824-13.824v-82.816a13.802667 13.802667 0 0 0-13.824-13.802667z" fill="#518CFF" opacity=".5" p-id="13504"/><path d="M719.061333 318.741333h-41.408v69.034667a27.605333 27.605333 0 0 1-27.605333 27.605333h-55.232a27.605333 27.605333 0 0 1-27.605333-27.605333V318.72h-110.421334v69.034667a27.605333 27.605333 0 0 1-27.605333 27.605333h-55.232a27.605333 27.605333 0 0 1-27.605333-27.605333V318.72h-41.386667A27.605333 27.605333 0 0 0 277.333333 346.346667v372.693333A27.605333 27.605333 0 0 0 304.938667 746.666667h414.122666A27.605333 27.605333 0 0 0 746.666667 719.061333v-372.693333a27.605333 27.605333 0 0 0-27.605334-27.626667z m-132.650666 209.130667l-59.776 135.978667h-61.013334l57.429334-130.176H493.226667v24.298666h-50.24v-69.034666h143.424v38.933333z" fill="#518CFF" p-id="13505"/></svg>