<?xml version="1.0" standalone="no"?><!DOCTYPE svg PUBLIC "-//W3C//DTD SVG 1.1//EN" "http://www.w3.org/Graphics/SVG/1.1/DTD/svg11.dtd"><svg t="1653527949468" class="icon" viewBox="0 0 1024 1024" version="1.1" xmlns="http://www.w3.org/2000/svg" p-id="13664" data-darkreader-inline-fill="" xmlns:xlink="http://www.w3.org/1999/xlink" width="200" height="200"><defs><style type="text/css">@font-face { font-family: feedback-iconfont; src: url(&quot;//at.alicdn.com/t/font_1031158_u69w8yhxdu.woff2?t=1630033759944&quot;) format(&quot;woff2&quot;), url(&quot;//at.alicdn.com/t/font_1031158_u69w8yhxdu.woff?t=1630033759944&quot;) format(&quot;woff&quot;), url(&quot;//at.alicdn.com/t/font_1031158_u69w8yhxdu.ttf?t=1630033759944&quot;) format(&quot;truetype&quot;); }</style></defs><path d="M512.000512 63.817468c-247.536746 0-448.206068 200.668299-448.206068 448.205045s200.669322 448.158996 448.206068 448.158996c247.534699 0 448.204022-200.62225 448.204022-448.158996S759.535211 63.817468 512.000512 63.817468zM371.768677 731.812311c0 0 0.141216 12.591783-15.948227 12.591783l-77.133751 0c0 0-19.027355 0-19.027355-19.027355l-18.373463-298.648844c0 0 0.279363-18.140149 18.699897-18.140149L349.104491 408.587746c0 0 22.664186-0.280386 22.664186 22.663162L371.768677 731.812311zM727.40442 689.095417c0 0-17.161868 55.308677-38.192857 55.308677L465.504548 744.404094c-15.575744 0-55.308677-10.540054-55.308677-39.732933L410.195871 408.494625c0 0 110.663402-81.843006 110.663402-186.259124 3.1262-5.456269-5.456269-38.193881 35.862789-38.193881 0 0 97.41875 10.912537 39.732933 224.453005l148.857283 0c0 0 37.401842-3.124154 37.401842 35.861766C782.71412 444.35639 782.71412 500.457106 727.40442 689.095417z" p-id="13665" fill="#f4ea2a" data-darkreader-inline-fill="" style="--darkreader-inline-fill:#847e07"/></svg>